<?xml version="1.0" encoding="utf-8"?>
<!-- Generator: Adobe Illustrator 17.0.2, SVG Export Plug-In . SVG Version: 6.00 Build 0)  -->
<!DOCTYPE svg PUBLIC "-//W3C//DTD SVG 1.1//EN" "http://www.w3.org/Graphics/SVG/1.1/DTD/svg11.dtd">
<svg version="1.1" id="TICK_copie_4_1_" xmlns="http://www.w3.org/2000/svg" xmlns:xlink="http://www.w3.org/1999/xlink" x="0px"
	 y="0px" width="14px" height="11px" viewBox="0 0 14 11" enable-background="new 0 0 14 11" xml:space="preserve">
<g id="TICK_copie_4">
	<g>
		<path fill-rule="evenodd" clip-rule="evenodd" fill="#60BE2C" d="M13,0c-0.276,0-0.526,0.127-0.707,0.333l-6.96,7.919L1.707,4.126
			C1.526,3.92,1.276,3.793,1,3.793c-0.552,0-1,0.509-1,1.138C0,5.245,0.112,5.53,0.293,5.736l4.333,4.931
			C4.807,10.873,5.057,11,5.333,11c0.276,0,0.526-0.127,0.707-0.333l7.667-8.724C13.888,1.737,14,1.452,14,1.138
			C14,0.509,13.552,0,13,0z"/>
	</g>
</g>
</svg>
