<?xml version="1.0" encoding="utf-8"?>
<!-- Generator: Adobe Illustrator 17.0.2, SVG Export Plug-In . SVG Version: 6.00 Build 0)  -->
<!DOCTYPE svg PUBLIC "-//W3C//DTD SVG 1.1//EN" "http://www.w3.org/Graphics/SVG/1.1/DTD/svg11.dtd">
<svg version="1.1" id="dribbble_copie_1_" xmlns="http://www.w3.org/2000/svg" xmlns:xlink="http://www.w3.org/1999/xlink" x="0px"
	 y="0px" width="103px" height="27px" viewBox="0 0 103 27" enable-background="new 0 0 103 27" xml:space="preserve">
<g id="dribbble_copie">
	<g>
		<path fill-rule="evenodd" clip-rule="evenodd" fill="#56595F" d="M31.03,10.519c1.162,0,2.105-0.892,2.105-1.992
			c0-1.1-0.942-1.992-2.105-1.992c-1.162,0-2.105,0.892-2.105,1.992C28.925,9.627,29.867,10.519,31.03,10.519z M100.486,17.326
			c-0.32-0.213-0.567-0.248-0.772,0.165c-3.535,7.246-9.491,3.63-8.9,3.948c1.321-0.572,4.796-3.21,4.271-6.852
			c-0.319-2.226-2.337-3.213-4.48-2.859c-3.74,0.617-5.116,4.435-4.415,7.815c0.123,0.58,0.342,1.059,0.56,1.528
			c-4.226,3.253-5.904-2.912-6.095-3.648c-0.008-0.039,3.263-2.62,4.173-8.768c0.953-6.444-1.219-7.617-3.44-7.58
			c-4.11,0.068-5.22,8.195-3.728,14.968c-0.125,0.031-0.706,0.336-1.641,0.37c-0.672-2.002-3.546-3.758-4.298-3.081
			c-1.882,1.692,0.456,5,2.102,5.26c-0.988,5.761-7.17,4.334-6.019-2.884c2.013-3.538,3.544-8.798,3.27-11.974
			c-0.097-1.124-0.975-2.631-2.962-2.556c-3.82,0.143-4.236,8.272-3.788,14.042c-0.022-0.142-0.235,0.701-1.8,1.12
			c-0.37-1.946-3.68-3.898-4.459-2.959c-1.458,1.757,1.069,4.89,2.267,5.109c-0.988,5.762-7.17,4.335-6.019-2.884
			c2.013-3.538,3.544-8.798,3.271-11.974C57.487,2.506,56.609,1,54.622,1.075c-3.82,0.143-4.236,8.272-3.788,14.042
			c-0.023-0.144-0.24,0.726-1.87,1.139c-0.055-2.524-3.376-3.681-4.174-2.876c-1.422,1.435,0.326,4.381,1.943,5.109
			c-0.988,5.762-7.169,4.335-6.019-2.884c2.013-3.538,3.544-8.798,3.271-11.974C43.888,2.506,43.01,1,41.023,1.075
			c-3.82,0.143-4.128,8.681-3.68,14.451c-1.258,5.103-5.478,11.475-4.93-1.29c0.054-0.895,0.113-1.235-0.358-1.571
			c-0.354-0.261-1.157-0.135-1.596-0.125c-0.534,0.02-0.668,0.316-0.786,0.763c-0.275,1.154-0.324,2.273-0.364,3.8
			c-0.026,0.714-0.086,1.047-0.377,2.021c-0.29,0.974-1.946,2.753-2.853,2.456c-1.258-0.41-0.845-3.769-0.609-6.078
			c0.196-1.824-0.432-2.644-2.043-2.942c-0.943-0.186-1.516-0.158-2.498-0.45c-0.929-0.277-1.139-1.94-3.12-1.386
			c-1.084,0.303-0.387,2.476-0.648,4.087c-1.28,7.922-3.945,8.14-5.181,4.291c5.566-12.903,1.61-17.989-0.705-17.989
			c-2.412,0-5.169,1.572-4.002,11.633c-0.568-0.157-0.742-0.241-1.364-0.241C2.395,12.504,0,15.193,0,18.51
			c0,3.317,2.395,6.006,5.909,6.006c2.075,0,3.531-0.893,4.635-2.275c0.72,0.976,1.596,2.29,3.199,2.231
			c4.778-0.176,6.167-9.452,6.331-9.969c0.511,0.074,0.994,0.216,1.466,0.29c0.786,0.112,0.843,0.406,0.825,1.154
			c-0.208,6.308,1.022,8.517,3.812,8.517c1.555,0,2.94-1.445,3.895-2.479c0.713,1.393,1.849,2.436,3.373,2.479
			c3.693,0.087,5.107-5.484,4.978-4.751c-0.101,0.575,1.198,4.719,5,4.734c4.826,0.019,5.623-5.116,5.693-5.744
			c-0.003,0.027-0.004,0.042-0.008,0.09c1.495-0.263,2.266-1.022,2.266-1.022s1.2,6.752,5.647,6.675
			c4.697-0.081,5.515-4.65,5.606-5.401c-0.002,0.021-0.003,0.025-0.005,0.053c1.776-0.612,2.243-1.225,2.243-1.225
			s0.954,6.617,5.647,6.675c4.182,0.052,5.732-4.001,5.741-5.698c0.705,0.007,2.01-0.396,1.98-0.419c0,0,1.532,5.786,5.81,6.083
			c2.009,0.139,3.515-1.07,4.374-1.621c2.019,1.547,8.74,3.523,12.984-3.287C102,18.631,100.712,17.477,100.486,17.326z M5.74,22.27
			c-2.051,0-3.365-1.794-3.365-3.729c0-1.935,1.207-3.729,3.258-3.729c0.923,0,1.436,0.096,2.155,0.688
			c0.13,0.486,0.5,1.607,0.679,2.116c0.241,0.681,0.527,1.261,0.816,1.892C8.869,21.126,7.517,22.27,5.74,22.27z M10.737,15.556
			c-0.085-0.129-0.067-0.05-0.163-0.171c-0.376-0.968-1.1-3.128-1.184-5.581c-0.095-2.775,0.394-6.028,1.835-6.028
			C12.201,3.775,13.239,10.368,10.737,15.556z M39.61,12.664c-0.232-1.647-0.243-8.989,1.619-8.787
			C42.257,4.272,40.577,11.2,39.61,12.664z M53.209,12.664c-0.231-1.647-0.243-8.989,1.619-8.787
			C55.856,4.272,54.176,11.2,53.209,12.664z M66.7,12.766c-0.231-1.647-0.243-8.989,1.619-8.787
			C69.347,4.374,67.667,11.302,66.7,12.766z M81.594,3.448c1.703-0.167,1.632,6.87-1.785,11.313
			C79.368,13.155,78.693,3.999,81.594,3.448z M88.751,18.59c-0.547-2.615,0.866-4.332,2.323-4.52
			c0.509-0.077,1.247,0.235,1.394,0.819c0.242,1.1-0.035,2.731-3.296,4.802C89.178,19.708,88.873,19.172,88.751,18.59z"/>
	</g>
</g>
</svg>
