<?xml version="1.0" encoding="utf-8"?>
<!-- Generator: Adobe Illustrator 17.0.2, SVG Export Plug-In . SVG Version: 6.00 Build 0)  -->
<!DOCTYPE svg PUBLIC "-//W3C//DTD SVG 1.1//EN" "http://www.w3.org/Graphics/SVG/1.1/DTD/svg11.dtd">
<svg version="1.1" id="eet_up_copie_1_" xmlns="http://www.w3.org/2000/svg" xmlns:xlink="http://www.w3.org/1999/xlink" x="0px"
	 y="0px" width="81px" height="33px" viewBox="0 0 81 33" enable-background="new 0 0 81 33" xml:space="preserve">
<g id="eet_up_copie">
	<g>
		<path fill-rule="evenodd" clip-rule="evenodd" fill="#9AA6C1" d="M23.291,4.156c0.477-1.907-6.86-2.212-7.418-0.585
			C15.275,5.269,11.174,20.282,9.531,20.8c0.636-2.859,1.576-14.551,0.567-17.911C9.494,1,2.641,2.868,3.766,3.905
			C3.39,16.889,2.355,21.056,0.599,25.304C0,26.369,3.492,28.177,4.569,25.663c1.435-4.454,2.264-11.15,1.975-15.436
			c0.648,3.261,0.621,10.365,0.665,12.264c0.004,2.356,2.131,3.026,3.81,0.818c1.406-1.83,2.838-4.382,3.66-7.633
			c-0.94,4.463-1.139,11.353-0.32,14.226c0.806,2.097,6.138,1.836,5.092,0.305C16.513,23.538,19.418,12.412,23.291,4.156z
			 M79.824,13.622c-0.155-0.747-0.431-1.39-0.828-1.929c-0.398-0.538-0.887-0.929-1.468-1.173c-0.835-0.347-1.735-0.252-2.699,0.287
			c-0.881,0.492-1.713,1.174-2.503,2.027c0.233-0.666,0.492-1.822,0.11-2.157c-0.781-0.687-2.264-0.105-2.924,0.014
			c-0.374,0.067-0.734,0.524-0.734,0.524c-0.666,2.553-1.142,4.599-1.705,6.808c-0.218,0.226-0.436,0.444-0.653,0.681
			c-0.382,0.417-0.767,0.8-1.155,1.147c-0.388,0.348-0.756,0.626-1.104,0.834c-0.348,0.208-0.679,0.313-0.994,0.313
			c-0.14,0-0.21-0.095-0.209-0.287c0-0.191,0.022-0.434,0.066-0.73c0.043-0.295,0.117-0.643,0.221-1.043
			c0.103-0.399,0.207-0.808,0.309-1.225c0.102-0.417,0.249-1.017,0.441-1.799c0.192-0.782,0.391-1.572,0.599-2.372
			c0.65-2.515,1.812-3.301-2.766-2.919c-0.29,0.024-0.336,0.517-0.336,0.517c-0.052,0.209-0.021-0.082-0.138,0.161
			c-0.083,0.244-0.172,0.521-0.266,0.834c-0.095,0.313-0.209,0.696-0.342,1.147c-0.307,0.869-0.651,1.798-1.034,2.789
			c-0.383,0.99-0.781,1.912-1.193,2.763c-0.413,0.852-0.822,1.556-1.225,2.111c-0.404,0.556-0.782,0.834-1.13,0.834
			c-0.385,0-0.592-0.261-0.62-0.782c-0.029-0.521,0.044-1.164,0.22-1.929c0.175-0.764,0.401-1.564,0.676-2.398
			c0.274-0.834,0.541-1.564,0.799-2.189c0.309-0.834,0.654-1.668,1.033-2.502c0.203-0.451,0.162-0.387,0.367-0.839
			c0,0-0.09-0.453-0.408-0.543c-0.679-0.191-1.976-0.103-2.698-0.103c-0.377,0-0.614,0.646-0.614,0.646
			c-0.246,0.383-0.242,0.283-0.481,0.734c-0.21,0.383-0.447,0.86-0.71,1.434c-0.263,0.573-0.503,1.208-0.72,1.903
			c-0.258,0.697-0.466,1.371-0.646,2.033c-0.101,0.085-0.197,0.154-0.304,0.26c-0.35,0.383-0.716,0.782-1.098,1.199
			c-0.382,0.417-0.767,0.8-1.155,1.147c-0.388,0.348-0.765,0.626-1.13,0.834c-0.366,0.208-0.706,0.313-1.02,0.313
			c-0.21,0-0.232-0.339-0.065-1.016c0.166-0.678,0.351-1.434,0.556-2.268l2.7-10.005l2.413,0.14c0,0,1.403,0.005,1.536-0.665
			c0.11-0.555,0.228-0.881,0.363-1.38c0.179-0.661-1.041-0.546-1.041-0.546h-2.652c0.287-1.077,0.066-0.385,0.213-1.081
			c0.259-0.943,1.378-2.265-2.694-1.999c-0.632,0.041-0.82,0.775-0.82,0.775c-0.077,0.313-0.176,0.402-0.28,0.784
			c-0.109,0.348,0.226-0.443,0.092,0.008c-0.135,0.452-0.264,0.956-0.388,1.512h-3.832c0,0-1.241-0.228-1.355,0.499
			c-0.087,0.553,0.04-0.016-0.168,1.033c-0.201,1.01,0.982,0.918,0.982,0.918h3.703c-0.445,1.668-1.244,4.036-1.719,5.757
			c-0.474,1.72-0.868,3.172-1.182,4.353c-0.017,0.055-0.03,0.117-0.047,0.173c-0.229,0.25-0.448,0.489-0.701,0.766
			c-0.414,0.452-0.857,0.869-1.329,1.251c-0.472,0.383-0.968,0.696-1.488,0.938c-0.52,0.243-1.06,0.365-1.618,0.365
			c-0.419,0-0.795-0.095-1.126-0.287c-0.331-0.191-0.607-0.434-0.825-0.73c-0.219-0.295-0.38-0.626-0.482-0.99
			c-0.103-0.365-0.131-0.592-0.092-0.939c-0.046-0.026,2.72,1.535,5.166-0.911c0.8-0.8,1.18-1.746,1.248-2.737
			c0.068-0.99-0.206-1.903-0.822-2.737c-0.617-0.834-1.553-1.251-2.811-1.251c-1.398,0-2.565,0.322-3.503,0.964
			c-0.938,0.643-1.66,1.451-2.167,2.424c-0.507,0.973-0.795,2.042-0.865,3.206c-0.014,0.225-0.013,0.445-0.013,0.665
			c-0.23,0.251-0.45,0.492-0.704,0.769c-0.414,0.452-0.857,0.869-1.329,1.251c-0.472,0.383-0.968,0.696-1.488,0.938
			c-0.52,0.243-1.06,0.365-1.618,0.365c-0.419,0-0.795-0.095-1.126-0.287c-0.331-0.191-0.607-0.434-0.825-0.73
			c-0.219-0.295-0.38-0.626-0.482-0.99c-0.103-0.365-0.131-0.592-0.092-0.939c-0.046-0.026,2.72,1.535,5.166-0.911
			c0.8-0.8,1.18-1.746,1.248-2.737c0.068-0.99-0.206-1.903-0.822-2.737c-0.617-0.834-1.553-1.251-2.811-1.251
			c-1.398,0-2.565,0.322-3.503,0.964c-0.938,0.643-1.66,1.451-2.167,2.424c-0.507,0.973-0.795,2.042-0.865,3.206
			c-0.07,1.165,0.054,2.25,0.371,3.258c0.317,1.008,0.831,1.868,1.541,2.58c0.71,0.713,1.611,1.121,2.704,1.225
			c0.953,0.104,1.905-0.086,2.857-0.573c0.952-0.486,1.823-1.086,2.616-1.798c0.614-0.552,1.151-1.111,1.649-1.674
			c0.022,0.08,0.038,0.162,0.063,0.24c0.317,1.008,0.831,1.868,1.541,2.58c0.71,0.713,1.611,1.121,2.704,1.225
			c0.953,0.104,1.905-0.086,2.857-0.573c0.952-0.486,1.823-1.086,2.616-1.798c0.206-0.185,0.387-0.372,0.579-0.559
			c-0.014,0.224-0.034,0.452-0.027,0.663c0.023,0.643,0.203,1.182,0.538,1.616c0.336,0.435,0.906,0.652,1.709,0.652
			c1.118,0,2.163-0.321,3.136-0.964c0.972-0.643,1.843-1.363,2.609-2.163c0.213-0.223,0.418-0.481,0.628-0.721
			c-0.004,0.383,0.011,0.749,0.063,1.086c0.127,0.834,0.449,1.504,0.966,2.007c0.517,0.504,1.281,0.756,2.295,0.756
			c0.594,0,1.184-0.235,1.771-0.704s1.142-1.086,1.668-1.851c-0.005,0.73,0.163,1.338,0.504,1.825c0.34,0.487,0.964,0.73,1.873,0.73
			c1.082,0,2.12-0.321,3.11-0.964c0.725-0.47,1.369-0.997,1.974-1.551c-0.07,0.258-0.14,0.511-0.21,0.769
			c-0.315,1.165-0.625,2.285-0.93,3.362c-0.305,1.077-0.383,1.268-0.633,2.189c-0.249,0.92-0.154,0.464-0.311,1.056
			c0,0-0.436,0.991,0.017,1.616c0.445,0.615,2.039,0.638,2.82,0.454c0.922-0.217,1.104-1.262,1.104-1.262
			c0.055-0.174,0.047-0.109,0.176-0.613c0.13-0.504,0.284-1.13,0.461-1.877c0.177-0.748,0.183-0.774,0.415-1.694
			c0.232-0.921,0.46-1.885,0.684-2.893c0.704,0.834,1.583,1.286,2.637,1.355c0.034,0,0.061,0.009,0.081,0.026
			c0.019,0.018,0.063,0.026,0.133,0.026c1.375,0.138,2.237,0.106,3.445-0.495c3.584-1.785,4.071-8.735,3.939-7.741
			C79.993,15.212,79.978,14.37,79.824,13.622z M40.495,14.504c0.03,1.106-1.401,2.43-4.123,1.885
			C36.183,12.756,40.426,11.85,40.495,14.504z M29.066,14.504c0.03,1.106-1.401,2.43-4.123,1.885
			C24.753,12.756,28.996,11.85,29.066,14.504z M76.139,14.899c-0.058,0.521-0.173,1.095-0.344,1.72
			c-0.172,0.626-0.368,1.251-0.592,1.877c-0.393,1.078-0.865,1.947-1.417,2.606c-0.552,0.661-1.124,1.008-1.714,1.043
			c-0.693,0.07-1.174-0.234-1.444-0.912c-0.27-0.678-0.165-1.642,0.317-2.893c0.188-0.626,0.478-1.285,0.87-1.981
			c0.391-0.695,0.816-1.32,1.273-1.877c0.456-0.556,0.924-0.99,1.403-1.303c0.478-0.313,0.916-0.399,1.313-0.261
			c0.181,0.07,0.296,0.287,0.347,0.652C76.201,13.935,76.197,14.378,76.139,14.899z"/>
	</g>
</g>
</svg>
