<?xml version="1.0" encoding="utf-8"?>
<!-- Generator: Adobe Illustrator 17.0.2, SVG Export Plug-In . SVG Version: 6.00 Build 0)  -->
<!DOCTYPE svg PUBLIC "-//W3C//DTD SVG 1.1//EN" "http://www.w3.org/Graphics/SVG/1.1/DTD/svg11.dtd">
<svg version="1.1" id="Paris_1_" xmlns="http://www.w3.org/2000/svg" xmlns:xlink="http://www.w3.org/1999/xlink" x="0px" y="0px"
	 width="171px" height="77px" viewBox="0 0 171 77" enable-background="new 0 0 171 77" xml:space="preserve">
<g id="i_copie_3">
	<g>
		<path fill-rule="evenodd" clip-rule="evenodd" fill="#FFFFFF" d="M132.087,25.8c0.128,0.125,0.243,0.362,0.347,0.708
			c0.271,0.911,0.331,1.828,0.183,2.748c-0.149,0.921-0.113,1.75,0.106,2.487c0.104,0.348,0.257,0.56,0.461,0.636
			c0.026,0.088,0.409,0.308,1.148,0.663c0.74,0.355,1.396,0.582,1.969,0.682c0.573,0.1,1.084-0.058,1.535-0.474
			c0.449-0.416,0.848-0.902,1.196-1.459c0.347-0.557,0.606-1.108,0.776-1.655c0.169-0.546,0.285-0.917,0.348-1.112l-0.077-0.26
			c-0.077-0.26-0.385-0.684-0.922-1.271c-0.537-0.587-1.437-1.073-2.698-1.457l0.096,0.017c-0.536-0.175-1.045-0.315-1.529-0.42
			c-0.484-0.104-0.981-0.201-1.49-0.29c-1.21-0.211-1.769-0.163-1.679,0.14C131.882,25.57,131.959,25.676,132.087,25.8z
			 M164.724,51.007c-0.249-2.499-1.209-5.018-2.876-7.554c-1.669-2.537-3.505-4.98-5.508-7.334l-0.238-0.219
			c0.08-0.072,2.877-4.693,2.72-6.262c-0.095-0.955-0.479-1.587-1.564-2.287c-1.277-0.819-4.167-1.814-5.143-2.099
			c-2.797-0.813-2.74,2.594-3.363,5.107c-0.249,1.005-3.442,12.947-4.653,15.927c-2.526-0.064-8.703,0.898-8.019,7.368
			c0.054,0.508,0.366,1.411,0.963,2.459c-7.746,5.95-6.418,0.385-5.733-1.538c0.67-1.883,1.496-3.755,2.375-5.657
			c0.879-1.903,1.721-3.638,2.526-5.207c0.805-1.568,1.348-2.719,1.632-3.455c0.231-0.534,0.318-1.101,0.258-1.702
			c-0.066-0.667-0.338-1.252-0.816-1.752c-0.477-0.501-1.051-0.901-1.722-1.202c-0.671-0.3-1.405-0.516-2.201-0.651
			c-0.798-0.133-1.516-0.2-2.157-0.2c-0.998,0-1.699,0.1-2.107,0.3c-0.407,0.2-0.601,0.401-0.581,0.601
			c0.02,0.2,0.09,0.368,0.21,0.501c0.12,0.135,0.235,0.4,0.347,0.801c0.103,0.335,0.148,0.601,0.133,0.801
			c-0.017,0.2-0.069,0.568-0.157,1.101c-0.264,0.936-0.664,2.287-1.199,4.055c-0.537,1.77-1.067,3.605-1.588,5.507
			c-0.522,1.903-0.963,3.739-1.321,5.507c-0.235,1.16-0.361,2.137-0.399,2.967c-1.297,0.733-2.781,1.348-4.401,1.563
			c-5.339,0.708-1.793-6.789,1.546-18.357c-0.044,0.152,1.322-2.835-4.926-2.835c-1.447,0.001-2.863-0.077-4.261-0.048
			c0.307-1.325,3.487-9.555-0.098-11.445c-0.812-0.428-1.651-0.766-2.659-0.746c-1.554,0.032-2.92,0.329-4.097,0.886
			c-1.179,0.559-2.142,1.285-2.89,2.18c-0.749,0.896-1.307,1.911-1.675,3.05c-0.37,1.138-0.481,2.304-0.337,3.493
			c0.174,1.442,0.726,2.797,1.659,4.064c0.869,1.184,1.037,1.742,2.575,2.341c-1.391,2.606-6.462,14.944-13.19,17.503
			c-0.61,0.003-2.9-0.112-2.283-2.321c1.588-5.684,4.272-13.659,4.325-13.813c0.078-0.223,0.124-0.3,0.062-0.453
			c-0.155-0.379-2.383-1.754-3.102-2.055c-1.434-0.754-2.982-0.599-3.734,0.485c-0.754,1.084-5.536,18.398-11.425,18.357
			c-3.792-0.026-4.051-6.406-2.61-11.521c2.692-9.555,10.741-11.613,13.058-11.742c0.962-0.021,1.823,0.12,2.583,0.419
			c0.76,0.301,1.363,0.643,1.813,1.028c0.448,0.387,0.957,0.928,1.524,1.628c0.16-0.003,0.421-0.167,0.785-0.491
			c0.362-0.323,0.695-0.727,0.999-1.208c0.303-0.481,0.558-1.02,0.768-1.618c0.208-0.598,0.275-1.211,0.198-1.843
			c-0.173-1.42-1.202-2.602-3.084-3.551c-1.884-0.947-4.63-1.383-8.238-1.305c-2.867,0.221-5.286,1.003-7.251,2.35
			c-1.967,1.347-3.591,2.865-4.873,4.553c-1.283,1.688-2.246,3.351-2.891,4.984c-0.645,1.635-1.04,2.85-1.185,3.643
			c-0.8,3.338-1.023,6.467-0.668,9.384c0.144,1.183,0.429,2.363,0.852,3.54c0.426,1.177,0.995,2.232,1.711,3.165
			c1.433,1.867,3.28,3.013,5.846,2.958c3.21-0.069,7.35-0.981,9.676-4.352c0,0-0.824,4.132,4.963,4.132
			c0.565,0,1.114-0.043,1.654-0.11c3.375-0.053,12.159-1.816,19.593-20.825c0.533-0.079,2.229-0.235,2.54-0.241
			c0.388-0.008,2.014-0.068,2.051,0.245c0.083,0.69-4.258,12.112-4.682,13.754c-0.426,1.643-0.587,2.871-0.489,3.684
			c0.152,1.254,0.789,2.183,1.913,2.787c1.124,0.605,2.188,0.876,3.2,0.876c4.147,0,7.525-1.228,9.978-2.553
			c0.267,0.401,0.578,0.756,0.973,1.025c1.031,0.701,2.085,1.463,3.084,1.463c4.263,0,7.727-1.893,10.108-3.754
			c2.161,2.027,5.423,3.785,10.067,3.785c3.006,0,5.507-0.441,7.498-1.323c1.99-0.882,3.565-1.947,4.724-3.198
			c1.157-1.249,1.956-2.554,2.397-3.915C164.658,53.232,164.827,52.038,164.724,51.007z M107.08,36.475
			c-1.696-0.586-2.216-1.635-2.399-3.149c-0.1-0.826,0.051-1.518,0.454-2.079c0.401-0.56,0.859-0.856,1.371-0.856
			C110.264,30.391,107.175,35.852,107.08,36.475z M138.927,53.989c-1.405-1.809-0.768-5.015,4.262-5.759
			C141.8,50.785,141.74,51.104,138.927,53.989z M142.417,56.974c6.17-5.333,9.823-14.594,10.87-16.885
			c3.882,4.6,4.54,8.68,4.704,10.329C158.581,56.35,151.841,62.093,142.417,56.974z M67.32,21.349
			c-0.36-2.52-1.151-4.747-2.371-6.682c-1.222-1.933-2.677-3.563-4.366-4.886c-1.691-1.323-3.516-2.387-5.475-3.191
			c-1.961-0.805-3.871-1.421-5.734-1.849c-3.606-0.608-6.986-0.845-10.14-0.712C34.884,4.213,31.072,4.861,27.8,5.97
			c-3.274,1.111-6.035,2.347-8.285,3.71c-2.25,1.363-3.998,2.641-5.243,3.835c-1.245,1.194-2.015,1.967-2.307,2.316
			c-1.466,1.754-2.501,3.36-3.107,4.822c-0.607,1.464-0.867,2.489-0.783,3.076c0.144,1.008,0.596,1.92,1.356,2.732
			c0.76,0.814,1.608,1.497,2.545,2.047c0.936,0.553,1.833,0.98,2.693,1.281c0.858,0.302,1.499,0.444,1.927,0.426
			c0.256-0.011,0.383-0.163,0.385-0.46c0-0.295,0.084-0.764,0.25-1.405c0.166-0.641,0.493-1.499,0.983-2.577
			c0.489-1.076,1.356-2.359,2.602-3.85c0.292-0.349,0.798-0.858,1.52-1.522c0.719-0.664,1.669-1.38,2.846-2.149
			c1.177-0.767,2.613-1.525,4.308-2.274c1.695-0.747,3.699-1.424,6.016-2.029c-0.1,0.511-0.448,1.815-1.049,3.911
			c-0.601,2.097-1.337,4.601-2.208,7.51c-5.385,0.313-13.064,4.939-13.999,12.988c-0.735,6.005,1.997,11.386,6.8,14.066
			c-0.407,1.962-0.69,3.876-0.852,5.741c-0.163,1.867-0.123,3.64,0.117,5.32c0.24,1.68,0.766,3.202,1.717,4.858
			c1.387,2.412,3.726,3.859,3.839,0.001c-0.004-0.505,0.041-3.668,0.393-5.555c0.437-2.342,1.047-4.967,1.834-7.874
			c0.962,0.13,1.964,0.234,3.005,0.317c1.041,0.083,2.158,0.099,3.353,0.048c2.814-0.119,5.71-0.705,8.692-1.762
			c2.98-1.055,5.815-2.674,8.506-4.86c2.69-2.184,5.081-4.969,7.17-8.354c2.09-3.385,3.572-7.419,4.446-12.105
			C67.639,25.985,67.657,23.702,67.32,21.349z M28.208,39.865c-0.883,3.041-1.834,7.176-1.834,7.176
			c-4.163-3.921-3.597-7.607-3.159-9.406c0.95-3.9,3.381-6.099,7.237-6.253C30.662,31.373,28.753,37.984,28.208,39.865z
			 M60.465,27.408c-0.205,1.574-0.498,3.127-0.877,4.664c1.183-4.82-3.329,21.213-25.596,17.705
			c0.864-2.478,3.98-13.044,4.899-15.618c3.791,3.231,4.008,7.036,4.913,7.647c1.676,1.723,4.518-1.407,5.163-2.207
			c3.385-4.2-4.625-10.642-7.68-12.205c1.079-3.257,1.888-5.7,2.427-7.329c0.539-1.627,0.9-2.847,1.085-3.659
			c0.184-0.81,0.541-2.763,0.42-3.604c1.887,0.005,3.231,0.197,5.003,0.586c1.771,0.391,3.377,0.978,4.82,1.761
			c1.441,0.785,2.64,1.812,3.594,3.081c0.954,1.271,1.563,2.83,1.827,4.677C60.669,24.336,60.669,25.836,60.465,27.408z
			 M29.878,68.192c-0.001,0.055-0.006,0.098-0.008,0.15C29.871,68.464,29.875,68.436,29.878,68.192z"/>
	</g>
</g>
<linearGradient id="SVGID_1_" gradientUnits="userSpaceOnUse" x1="37.4415" y1="23.6597" x2="36.9188" y2="26.6244">
	<stop  offset="0" style="stop-color:#FFFFFF"/>
	<stop  offset="1" style="stop-color:#5B5B5B"/>
</linearGradient>
<path opacity="0.2" fill="url(#SVGID_1_)" d="M32.247,25.369c0,0,5.493-0.423,9.041,2.026l0.829-2.503c0,0-4.471-1.188-4.689-1.234
	s-4.457-0.718-4.457-0.718L32.247,25.369z"/>
<linearGradient id="SVGID_2_" gradientUnits="userSpaceOnUse" x1="25.4494" y1="20.0015" x2="25.4494" y2="20.0015">
	<stop  offset="0" style="stop-color:#FFFFFF"/>
	<stop  offset="1" style="stop-color:#A9A9A9"/>
</linearGradient>
<path fill="url(#SVGID_2_)" d="M25.449,20.002"/>
<linearGradient id="SVGID_3_" gradientUnits="userSpaceOnUse" x1="33.7246" y1="36.3056" x2="34.8692" y2="32.034">
	<stop  offset="0" style="stop-color:#FFFFFF"/>
	<stop  offset="1" style="stop-color:#5B5B5B"/>
</linearGradient>
<path opacity="0.15" fill-rule="evenodd" clip-rule="evenodd" fill="url(#SVGID_3_)" d="M30.452,31.382c0,0,6.093,0.144,8.44,2.777
	l-1.014,2.874c0,0-2.226-0.737-4.366-1.271c-1.701-0.424-3.298-0.627-3.981-0.581L30.452,31.382z"/>
<linearGradient id="SVGID_4_" gradientUnits="userSpaceOnUse" x1="36.013" y1="52.4888" x2="32.0969" y2="52.4888">
	<stop  offset="0" style="stop-color:#FFFFFF"/>
	<stop  offset="1" style="stop-color:#5B5B5B"/>
</linearGradient>
<path opacity="0.15" fill-rule="evenodd" clip-rule="evenodd" fill="url(#SVGID_4_)" d="M33.993,49.777c0,0-0.953,2.698-1.896,5.136
	l2.648,0.287l1.268-5.181L33.993,49.777z"/>
<linearGradient id="SVGID_5_" gradientUnits="userSpaceOnUse" x1="45.2207" y1="21.5089" x2="11.9769" y2="21.5089">
	<stop  offset="0" style="stop-color:#FFFFFF"/>
	<stop  offset="1" style="stop-color:#5B5B5B"/>
</linearGradient>
<path opacity="0.2" fill-rule="evenodd" clip-rule="evenodd" fill="url(#SVGID_5_)" d="M11.977,28.508
	c0,0,5.965-16.956,33.244-15.705c0,0-24.406-0.169-28.264,17.448C16.957,30.251,14.143,30.651,11.977,28.508z"/>
<linearGradient id="SVGID_6_" gradientUnits="userSpaceOnUse" x1="30.5366" y1="28.9636" x2="45.0833" y2="43.5104">
	<stop  offset="0" style="stop-color:#FFFFFF"/>
	<stop  offset="1" style="stop-color:#5B5B5B"/>
</linearGradient>
<path opacity="0.2" fill-rule="evenodd" clip-rule="evenodd" fill="url(#SVGID_6_)" d="M29.53,31.382l-2.053,0.64
	c0,0,11.2-5.635,20.052,9.041c0,0-1.987,1.809-3.255,1.077c0,0-0.784-0.27-1.058-1.033S41.095,30.87,29.53,31.382z"/>
<linearGradient id="SVGID_7_" gradientUnits="userSpaceOnUse" x1="39.999" y1="16.7745" x2="39.999" y2="12.7346">
	<stop  offset="0" style="stop-color:#FFFFFF"/>
	<stop  offset="1" style="stop-color:#5B5B5B"/>
</linearGradient>
<path opacity="0.2" fill-rule="evenodd" clip-rule="evenodd" fill="url(#SVGID_7_)" d="M35.504,13.948c0,0,7.55-1.553,9.716-1.145
	c0,0,0.069,3.072-0.42,3.604c-0.489,0.532-10.026,0.33-10.026,0.33L35.504,13.948z"/>
<linearGradient id="SVGID_8_" gradientUnits="userSpaceOnUse" x1="23.989" y1="48.5418" x2="26.4642" y2="49.9709">
	<stop  offset="0" style="stop-color:#FFFFFF"/>
	<stop  offset="1" style="stop-color:#5B5B5B"/>
</linearGradient>
<path opacity="0.2" fill-rule="evenodd" clip-rule="evenodd" fill="url(#SVGID_8_)" d="M25.049,52.423c0,0,0.859-4.492,1.325-5.382
	l-0.951-0.981c0,0-1.738,2.903-2.232,5.109C23.19,51.169,24.778,52.421,25.049,52.423z"/>
<linearGradient id="SVGID_9_" gradientUnits="userSpaceOnUse" x1="83.2269" y1="53.3385" x2="83.2269" y2="32.8803">
	<stop  offset="0" style="stop-color:#FFFFFF"/>
	<stop  offset="1" style="stop-color:#5B5B5B"/>
</linearGradient>
<path opacity="0.2" fill-rule="evenodd" clip-rule="evenodd" fill="url(#SVGID_9_)" d="M72.223,53.338
	c0,0-1.493-20.972,14.42-20.448c2.343,0.077,4.838,1.234,7.624,3.051c0,0-1.28,2.395-2.267,2.611c0,0-2.501-3.206-5.501-3.067
	S72.223,38.918,72.223,53.338z"/>
<linearGradient id="SVGID_10_" gradientUnits="userSpaceOnUse" x1="109.3879" y1="34.1671" x2="105.0525" y2="29.8316">
	<stop  offset="0" style="stop-color:#FFFFFF"/>
	<stop  offset="1" style="stop-color:#5B5B5B"/>
</linearGradient>
<path opacity="0.25" fill-rule="evenodd" clip-rule="evenodd" fill="url(#SVGID_10_)" d="M107.08,36.475c0,0,3.123-7.34,1.164-7.947
	c-2.135-0.661-3.584,1.086-3.584,4.556c0,0,0-3.298,2.654-2.584C109.176,31.002,108.03,34.42,107.08,36.475z"/>
<linearGradient id="SVGID_11_" gradientUnits="userSpaceOnUse" x1="131.7594" y1="49.5287" x2="123.0888" y2="40.8581">
	<stop  offset="0" style="stop-color:#FFFFFF"/>
	<stop  offset="1" style="stop-color:#5B5B5B"/>
</linearGradient>
<path opacity="0.2" fill-rule="evenodd" clip-rule="evenodd" fill="url(#SVGID_11_)" d="M128.43,35.541c0,0,0.322-0.767,3.261-0.792
	c1.213-0.01-4.896,20.146-7.313,22.152c0,0,1.671-7.496,1.885-8.484c0.308-1.421,3.057-10.045,2.944-10.664
	C129.095,37.134,129.065,36.727,128.43,35.541z"/>
<linearGradient id="SVGID_12_" gradientUnits="userSpaceOnUse" x1="124.8051" y1="36.497" x2="124.8051" y2="36.497">
	<stop  offset="0" style="stop-color:#FFFFFF"/>
	<stop  offset="1" style="stop-color:#5B5B5B"/>
</linearGradient>
<path fill-rule="evenodd" clip-rule="evenodd" fill="url(#SVGID_12_)" d="M124.805,36.497"/>
<linearGradient id="SVGID_13_" gradientUnits="userSpaceOnUse" x1="148.9709" y1="47.564" x2="159.5501" y2="53.6719">
	<stop  offset="0" style="stop-color:#FFFFFF"/>
	<stop  offset="1" style="stop-color:#5B5B5B"/>
</linearGradient>
<path opacity="0.2" fill-rule="evenodd" clip-rule="evenodd" fill="url(#SVGID_13_)" d="M153.287,40.089
	c0,0,15.265,16.406-2.111,18.714C151.176,58.803,164.736,55.637,153.287,40.089z"/>
<linearGradient id="SVGID_14_" gradientUnits="userSpaceOnUse" x1="142.3288" y1="53.8246" x2="140.4272" y2="55.7262">
	<stop  offset="0" style="stop-color:#FFFFFF"/>
	<stop  offset="1" style="stop-color:#5B5B5B"/>
</linearGradient>
<path opacity="0.2" fill-rule="evenodd" clip-rule="evenodd" fill="url(#SVGID_14_)" d="M138.927,53.989
	c0,0,1.108,1.894,3.489,2.985l1.569-1.493c0,0-2.8-1.185-3.623-3.005L138.927,53.989z"/>
<linearGradient id="SVGID_15_" gradientUnits="userSpaceOnUse" x1="136.8524" y1="58.9231" x2="138.3489" y2="57.4266">
	<stop  offset="0" style="stop-color:#FFFFFF"/>
	<stop  offset="1" style="stop-color:#5B5B5B"/>
</linearGradient>
<path opacity="0.2" fill-rule="evenodd" clip-rule="evenodd" fill="url(#SVGID_15_)" d="M137.04,56.118c0,0,0.551,1.414,2.488,3.133
	l-1.33,0.956c0,0-2.519-2.204-2.574-3.058L137.04,56.118z"/>
<linearGradient id="SVGID_16_" gradientUnits="userSpaceOnUse" x1="142.4268" y1="47.3243" x2="144.1011" y2="47.3243">
	<stop  offset="0" style="stop-color:#FFFFFF"/>
	<stop  offset="0.6254" style="stop-color:#5B5B5B"/>
</linearGradient>
<path opacity="0.2" fill-rule="evenodd" clip-rule="evenodd" fill="url(#SVGID_16_)" d="M144.101,46.285
	c0,0-0.554,1.282-0.912,1.945l-0.762,0.139v-1.99C142.427,46.379,143.57,46.253,144.101,46.285z"/>
<linearGradient id="SVGID_17_" gradientUnits="userSpaceOnUse" x1="110.1424" y1="35.3015" x2="109.8423" y2="37.0034">
	<stop  offset="0" style="stop-color:#FFFFFF"/>
	<stop  offset="1" style="stop-color:#5B5B5B"/>
</linearGradient>
<path opacity="0.2" fill-rule="evenodd" clip-rule="evenodd" fill="url(#SVGID_17_)" d="M107.08,36.475c0,0,3.049,0.72,5.421,0.739
	l0.392-1.319c0,0-4.563-0.498-5.191-1.024L107.08,36.475z"/>
<path fill-rule="evenodd" clip-rule="evenodd" fill="#FFFFFF" d="M104.921,40.931"/>
<linearGradient id="SVGID_18_" gradientUnits="userSpaceOnUse" x1="107.5126" y1="43.661" x2="107.5126" y2="41.0203">
	<stop  offset="0" style="stop-color:#FFFFFF"/>
	<stop  offset="1" style="stop-color:#5B5B5B"/>
</linearGradient>
<path opacity="0.2" fill-rule="evenodd" clip-rule="evenodd" fill="url(#SVGID_18_)" d="M110.856,41.959
	c0,0-4.324,0.134-5.934-0.939l-0.752,1.658c0,0,4.664,1.271,6.024,0.922L110.856,41.959z"/>
</svg>
