<?xml version="1.0" encoding="utf-8"?>
<!-- Generator: Adobe Illustrator 15.1.0, SVG Export Plug-In . SVG Version: 6.00 Build 0)  -->
<!DOCTYPE svg PUBLIC "-//W3C//DTD SVG 1.1//EN" "http://www.w3.org/Graphics/SVG/1.1/DTD/svg11.dtd">
<svg version="1.1" id="Layer_1" xmlns="http://www.w3.org/2000/svg" xmlns:xlink="http://www.w3.org/1999/xlink" x="0px" y="0px"
   width="123px" height="47px" viewBox="0 0 123 47" enable-background="new 0 0 123 47" xml:space="preserve">
<path opacity="0.26" fill-rule="evenodd" clip-rule="evenodd" d="M122.785,26.049c-0.525,0.846-2.387,2.86-6.002,2.759
  c-5.568-0.156-7.512-3.345-8.102-4.956c-3.293-0.787-4.32-3.278-4.572-4.979c-0.332,0.82-0.654,1.756-0.924,2.828
  c-1.389,5.535-3.346,8.249-6.271,6.087c-1.309-1.128-2.766-2.343-3.391-6.913c-0.123-0.891-0.26-4.07-0.127-6.344
  c-0.289,0.951-1.365,3.871-2.521,7.238c-1.154,3.368-1.891,7.041-3.83,7.041c-3.941,0-4.443-4.753-4.178-12.312
  c-0.012-0.066-2.52,12.473-6.584,12.392c-0.891-0.018-2.152-0.305-3.17-1.553c-0.008-0.01-0.016-0.02-0.023-0.03
  c-0.684-0.832-1.197-1.804-1.574-2.936c-0.441,1.435-2.088,4.426-4.152,4.426c-2.963,0-3.812-2.978-4.008-3.483
  c-0.268,0.47-2.59,3.487-5.617,3.487c-2.399,0-4.466-1.712-5.025-3.794c-0.945,1.562-2.835,3.94-6.761,3.94
  c-3.365,0-5.509-1.468-6.534-2.63c-1.842,1.471-3.994,2.516-6.691,2.516c-5.037,0-5.613-4.639-5.613-8.412
  c0-1.373,0.229-4.374,0.439-6.201c0.409-2.447-0.049-2.57-0.741-2.813c-0.692-0.245-1.154-0.35-1.972-0.586
  c0,8.745-3.17,16.273-11.507,17.859c-0.618,0.165-1.277,0.252-2.036,0.255C1.005,28.965-0.013,20.998,0,16.846
  C0.026,8.536,5.876,1.67,10.214,1.658c4.338-0.013,7.323,1.308,6.972,4.369c-0.351,3.061-3.211,3.143-3.06,0.735
  c0-7.189-9.165,1.204-9.191,9.327c-0.001,0.559-0.7,10.248,7.073,10.065v-0.048c6.996-0.79,10.097-7.938,10.097-15.865
  c-3.677-1.839-3.345-5.289-0.977-5.837c2.62-0.709,3.778,2.063,3.778,4.418c2.955,1.039,2.943,0.986,4.735,1.576
  c1.793,0.591,2.813,0.979,2.632,2.824c-0.403,2.936-0.885,7.754-0.457,10.108c0.757,4.158,3.343,2.858,5.825,0.425
  c-0.257-0.555-0.43-1.065-0.527-1.474c-0.195-0.82-0.77-3.597-0.302-6.565c0.675-4.286,3.017-8.414,7.566-8.286
  c3.059,0,4.217,2.688,4.217,6.236c0,4.391-4.229,8.405-6.421,10.487c0.995,1.521,2.312,2.643,3.992,2.643
  c1.611,0,4.236-0.182,5.602-4.556c0.051-0.184,0.394-2.596,0.457-2.88c1.029-4.67,3.022-7.648,4.778-9.43
  c2.725-2.513,5.829-1.253,5.2-0.325c-0.367,0.536-1.104,0.488-2.477,2.418c-2.442,3.782-3.923,8.828-2.859,12.028
  c0.204,0.613,1.047,1.441,1.894,1.438c2.968,0,4.084-11.407,5.833-11.407c0.803,0,0.418,2.78,0.33,3.535
  c-0.223,1.982,0.041,7.175,1.32,8.235c2.412,2.035,4.869-2.021,4.559-5.5c-0.006-0.084-0.004-0.123,0.006-0.145
  c-0.15-3,0.232-6.809,1.07-11.697c-1.475,0.473-2.166,0.66-3.689,1.228c-0.764,0.292-1.141-0.896-0.201-1.343
  c0.572-0.263,1.699-0.683,4.18-1.538c0.281-1.544,0.602-3.186,0.963-4.94L77.43,0c-0.387,1.881-0.729,3.712-1.029,5.481
  c3.58-1.092,7.279-2.012,9.285-1.94c0.16,0.008,0.303,0.025,0.436,0.047c1.551,0.221,2.391,1.404,2.338,2.518
  c-0.055,1.216-1.402,2.177-3.537,2.177c-1.83-0.035-2.607-1.34-2.559-2.553c-1.523,0.296-3.715,0.81-6.254,1.516
  c-1.287,8.113-1.59,14.55-0.594,16.81c1.277,2.9,1.92,1.745,3.312-0.507c1.969-3.338,3.852-11.908,3.896-12.173
  c0.102-0.599,3.98-2.775,3.973-0.932c-0.18,5.087-0.547,10.417,0.09,12.985c0.131,0.524,0.699,2.283,1.723-0.251
  c0.449-1.115,1.879-4.215,2.803-6.794c0.924-2.578,1.623-3.586,1.926-4.408c0.209-0.557,3.654-1.713,3.781-0.749
  c0.15,5.729,0.26,10.286,1.295,12.778c0.373,0.9,1.059,2.033,1.66,0.188c0.377-1.156,0.75-3.228,1.045-5.288
  c0.264-1.851,0.807-6.745,4.777-5.906c0.576,0.144,0.561,0.506,0.248,1.177v0.002c-0.004,0.008-0.008,0.018-0.012,0.025
  c-0.002,0.006-0.006,0.011-0.008,0.017c-1.564,3.153-0.164,6.586,2.158,7.522c-0.119-0.877-0.162-1.952,0.039-3.062
  c0.588-3.213,2.451-7.403,6.779-7.28c2.945,0.082,4.023,2.146,3.867,4.598c0,3.35-2.246,7.839-6.574,8.033
  c1.029,2.992,3.594,3.247,4.783,3.247c1.506,0,3.66-1.145,4.902-4.417C122.668,20.777,123.311,25.203,122.785,26.049z
   M43.487,10.789c-1.645,0-4.041,6.182-2.739,9.8C44.977,16.255,44.887,10.789,43.487,10.789z M113.879,14.485
  c-1.205,0-2.682,4.438-2.283,7.479C115.119,21.916,115.748,14.485,113.879,14.485z M30.327,41.262
  c0.018-0.012,0.036-0.023,0.054-0.035c0.88-1.386,1.76-2.771,2.64-4.156c0.559,0,0.913-0.072,1.471-0.072c0,2.962,0,6.038,0,9
  c-0.523,0-0.977,0-1.5,0c0-2.114,0.135-4.271,0.135-6.385c-0.012,0.007-0.024,0.013-0.036,0.019
  c-0.921,1.379-1.843,2.759-2.765,4.138c-0.054-0.022-0.021,0-0.053-0.036c-0.91-1.367-1.82-2.734-2.729-4.102
  c-0.006,0-0.012,0-0.018,0c0,2.107,0,4.216,0,6.323c-0.511,0-1.023,0-1.534,0c0-2.961,0-5.924,0-8.885c0.553,0,1.106,0,1.659,0
  C28.543,38.467,29.436,39.865,30.327,41.262z M44.596,36.998c1.296,2.985,2.593,5.972,3.889,8.957c-0.553,0-1.106,0-1.659,0
  c-0.053-0.27-0.764-1.984-0.91-2.132c-1.385,0-2.771,0-4.156,0c-0.303,0.71-0.606,1.421-0.91,2.132c-0.535,0-1.07,0-1.605,0
  c1.296-2.985,2.592-5.972,3.888-8.957C43.621,36.998,44.109,36.998,44.596,36.998z M45.363,42.426c0-0.006,0-0.012,0-0.018
  c-0.511-1.176-1.022-2.353-1.534-3.529c-0.5,1.183-0.999,2.365-1.499,3.547C43.342,42.426,44.353,42.426,45.363,42.426z
   M59.418,37.84c0.726,0.577,1.116,2.114,0.624,3.261c-0.313,0.731-1.062,1.272-1.891,1.487c0.797,1.121,1.594,2.244,2.391,3.367
  c-0.444,0.004-1.547,0.113-1.873-0.036c-0.713-1.021-1.427-2.042-2.141-3.063c-0.648,0-1.296,0-1.943,0c0,1.033,0,2.066,0,3.1
  c-0.518,0-1.035,0-1.553,0c0-2.961,0-5.924,0-8.885C55.39,37.053,58.097,36.79,59.418,37.84z M54.585,41.459
  c1.625,0.017,3.416,0.232,3.959-0.86c0.082-0.165,0.188-0.46,0.143-0.734c-0.277-1.731-2.168-1.375-4.102-1.361
  C54.585,39.488,54.585,40.474,54.585,41.459z M66.488,41.498c0.029-0.023,0.357-0.033,0.387-0.058
  c1.373-1.456,2.746-2.913,4.119-4.37c0.631,0,1.262,0,1.891,0c-1.225,1.271-2.449,2.544-3.674,3.815
  c1.279,1.689,2.557,3.38,3.836,5.069c-0.289,0.004-1.775,0.067-1.891-0.036c-1-1.319-1.998-2.639-2.998-3.958
  c-0.213,0.208-0.428,0.418-0.641,0.627c-0.25,0.268-0.779,0.642-1.029,0.91c0,0.854,0,1.646,0,2.5c-0.518,0-0.982,0-1.5,0
  c0-2.962,0-6.038,0-9c0.518,0,0.982,0,1.5,0C66.494,38.479,66.482,40.018,66.488,41.498z M83.986,36.998c0,0.466,0,1.034,0,1.5
  c-1.672,0-3.33,0-5,0c0,0.771-0.018,1.51-0.018,2.28c1.479,0,2.961,0,4.439,0c0,0.466,0,0.931,0,1.397c-1.479,0-2.961,0-4.439,0
  c0,0.794,0,1.588,0,2.382c1.688,0,3.377,0,5.064,0c0,0.466,0,0.932,0,1.397c-2.205,0-4.412,0-6.617,0c0-2.961,0.07-5.995,0.07-8.957
  C79.674,36.998,81.799,36.998,83.986,36.998z M94.984,38.503c-0.934,0-1.566-0.005-2.5-0.005c0,2.484,0,5.016,0,7.5
  c-0.523,0-0.977,0-1.5,0c0-2.484,0-5.016,0-7.5c-0.939,0-1.561,0-2.5,0c0-0.478,0-1.021,0-1.5c2.396,0,4.104,0,6.5,0
  C94.984,37.477,94.984,38.025,94.984,38.503z"/>
<path fill-rule="evenodd" clip-rule="evenodd" fill="#86A44B" d="M122.796,27.051c-0.525,0.846-2.387,2.86-6.002,2.759
  c-5.568-0.156-7.512-3.345-8.102-4.956c-3.293-0.787-4.32-3.278-4.572-4.979c-0.332,0.82-0.654,1.756-0.924,2.828
  c-1.389,5.535-3.346,8.249-6.271,6.087c-1.309-1.128-2.766-2.343-3.391-6.913c-0.123-0.891-0.26-4.07-0.127-6.344
  c-0.289,0.951-1.365,3.871-2.521,7.238c-1.154,3.368-1.891,7.041-3.83,7.041c-3.941,0-4.443-4.753-4.178-12.312
  c-0.012-0.066-2.52,12.473-6.584,12.392c-0.891-0.018-2.152-0.305-3.17-1.553c-0.008-0.01-0.016-0.02-0.023-0.03
  c-0.684-0.832-1.197-1.804-1.574-2.936c-0.441,1.435-2.088,4.426-4.152,4.426c-2.963,0-3.812-2.978-4.008-3.483
  c-0.268,0.47-2.589,3.487-5.616,3.487c-2.399,0-4.466-1.712-5.025-3.794c-0.945,1.562-2.835,3.94-6.761,3.94
  c-3.365,0-5.509-1.468-6.534-2.63c-1.842,1.471-3.994,2.516-6.691,2.516c-5.037,0-5.613-4.639-5.613-8.412
  c0-1.373,0.229-4.374,0.439-6.201c0.409-2.447-0.049-2.57-0.741-2.813c-0.692-0.245-1.154-0.35-1.972-0.586
  c0,8.745-3.17,16.273-11.507,17.859c-0.618,0.165-1.277,0.252-2.036,0.255C1.016,29.967-0.002,22,0.011,17.848
  C0.037,9.538,5.887,2.672,10.225,2.66c4.338-0.013,7.323,1.308,6.972,4.369c-0.351,3.061-3.211,3.143-3.06,0.735
  c0-7.189-9.165,1.204-9.191,9.327c-0.001,0.559-0.7,10.248,7.073,10.065v-0.048c6.996-0.79,10.097-7.938,10.097-15.865
  c-3.677-1.839-3.345-5.289-0.977-5.837c2.62-0.709,3.778,2.063,3.778,4.418c2.955,1.039,2.943,0.986,4.735,1.576
  c1.793,0.591,2.813,0.979,2.632,2.824c-0.403,2.936-0.885,7.754-0.457,10.108c0.757,4.158,3.343,2.858,5.825,0.425
  c-0.257-0.555-0.43-1.065-0.527-1.474c-0.195-0.82-0.77-3.597-0.302-6.565c0.675-4.286,3.017-8.414,7.566-8.286
  c3.059,0,4.217,2.688,4.217,6.236c0,4.391-4.229,8.405-6.421,10.487c0.995,1.521,2.312,2.643,3.992,2.643
  c1.611,0,4.236-0.182,5.602-4.556c0.051-0.184,0.394-2.596,0.457-2.88c1.029-4.67,3.022-7.648,4.778-9.43
  c2.725-2.513,5.828-1.253,5.2-0.325c-0.367,0.536-1.104,0.488-2.477,2.418c-2.442,3.782-3.922,8.828-2.859,12.028
  c0.204,0.613,1.047,1.441,1.894,1.438c2.967,0,4.084-11.407,5.832-11.407c0.803,0,0.418,2.78,0.33,3.535
  c-0.223,1.982,0.041,7.175,1.32,8.235c2.412,2.035,4.869-2.021,4.559-5.5c-0.006-0.084-0.004-0.123,0.006-0.145
  c-0.15-3,0.232-6.809,1.07-11.697c-1.475,0.473-2.166,0.66-3.689,1.228c-0.764,0.292-1.141-0.896-0.201-1.343
  c0.572-0.263,1.699-0.683,4.18-1.538c0.281-1.544,0.602-3.186,0.963-4.94l4.299-1.918c-0.387,1.881-0.729,3.712-1.029,5.481
  c3.58-1.092,7.279-2.012,9.285-1.94c0.16,0.008,0.303,0.025,0.436,0.047c1.551,0.221,2.391,1.404,2.338,2.518
  c-0.055,1.216-1.402,2.177-3.537,2.177c-1.83-0.035-2.607-1.34-2.559-2.553c-1.523,0.296-3.715,0.81-6.254,1.516
  c-1.287,8.113-1.59,14.55-0.594,16.81c1.277,2.9,1.92,1.745,3.312-0.507c1.969-3.338,3.852-11.908,3.896-12.173
  c0.102-0.599,3.98-2.775,3.973-0.932c-0.18,5.087-0.547,10.417,0.09,12.985c0.131,0.524,0.699,2.283,1.723-0.251
  c0.449-1.115,1.879-4.215,2.803-6.794c0.924-2.578,1.623-3.586,1.926-4.408c0.209-0.557,3.654-1.713,3.781-0.749
  c0.15,5.729,0.26,10.286,1.295,12.778c0.373,0.9,1.059,2.033,1.66,0.188c0.377-1.156,0.75-3.228,1.045-5.288
  c0.264-1.851,0.807-6.745,4.777-5.906c0.576,0.144,0.561,0.506,0.248,1.177v0.002c-0.004,0.008-0.008,0.018-0.012,0.025
  c-0.002,0.006-0.006,0.011-0.008,0.017c-1.564,3.153-0.164,6.586,2.158,7.522c-0.119-0.877-0.162-1.952,0.039-3.062
  c0.588-3.213,2.451-7.403,6.779-7.28c2.945,0.082,4.023,2.146,3.867,4.598c0,3.35-2.246,7.839-6.574,8.033
  c1.029,2.992,3.594,3.247,4.783,3.247c1.506,0,3.66-1.145,4.902-4.417C122.679,21.779,123.321,26.205,122.796,27.051z
   M43.498,11.791c-1.645,0-4.041,6.182-2.739,9.8C44.988,17.257,44.898,11.791,43.498,11.791z M113.89,15.487
  c-1.205,0-2.682,4.438-2.283,7.479C115.13,22.918,115.759,15.487,113.89,15.487z M30.338,42.264
  c0.018-0.012,0.036-0.023,0.054-0.035c0.88-1.386,1.76-2.771,2.64-4.156c0.559,0,0.913-0.072,1.471-0.072c0,2.962,0,6.038,0,9
  c-0.523,0-0.977,0-1.5,0c0-2.114,0.135-4.271,0.135-6.385c-0.012,0.007-0.024,0.013-0.036,0.019
  c-0.921,1.379-1.843,2.759-2.765,4.138c-0.054-0.022-0.021,0-0.053-0.036c-0.91-1.367-1.82-2.734-2.729-4.102
  c-0.006,0-0.012,0-0.018,0c0,2.107,0,4.216,0,6.323c-0.511,0-1.023,0-1.534,0c0-2.961,0-5.924,0-8.885c0.553,0,1.106,0,1.659,0
  C28.555,39.469,29.447,40.867,30.338,42.264z M44.607,38c1.296,2.985,2.593,5.972,3.889,8.957c-0.553,0-1.106,0-1.659,0
  c-0.053-0.27-0.764-1.984-0.91-2.132c-1.385,0-2.771,0-4.156,0c-0.303,0.71-0.606,1.421-0.91,2.132c-0.535,0-1.07,0-1.605,0
  c1.296-2.985,2.592-5.972,3.888-8.957C43.632,38,44.12,38,44.607,38z M45.375,43.428c0-0.006,0-0.012,0-0.018
  c-0.511-1.176-1.022-2.353-1.534-3.529c-0.5,1.183-0.999,2.365-1.499,3.547C43.353,43.428,44.364,43.428,45.375,43.428z
   M59.43,38.842c0.726,0.577,1.117,2.114,0.625,3.261c-0.314,0.731-1.063,1.272-1.891,1.487c0.797,1.121,1.594,2.244,2.391,3.367
  c-0.445,0.004-1.547,0.113-1.874-0.036c-0.713-1.021-1.427-2.042-2.141-3.063c-0.648,0-1.296,0-1.943,0c0,1.033,0,2.066,0,3.1
  c-0.518,0-1.035,0-1.553,0c0-2.961,0-5.924,0-8.885C55.401,38.055,58.108,37.792,59.43,38.842z M54.597,42.461
  c1.625,0.017,3.416,0.232,3.959-0.86c0.082-0.165,0.188-0.46,0.143-0.734c-0.277-1.731-2.168-1.375-4.102-1.361
  C54.597,40.49,54.597,41.476,54.597,42.461z M66.499,42.5c0.029-0.023,0.357-0.033,0.387-0.058c1.373-1.456,2.746-2.913,4.119-4.37
  c0.631,0,1.262,0,1.891,0c-1.225,1.271-2.449,2.544-3.674,3.815c1.279,1.689,2.557,3.38,3.836,5.069
  c-0.289,0.004-1.775,0.067-1.891-0.036c-1-1.319-1.998-2.639-2.998-3.958c-0.213,0.208-0.428,0.418-0.641,0.627
  c-0.25,0.268-0.779,0.642-1.029,0.91c0,0.854,0,1.646,0,2.5c-0.518,0-0.982,0-1.5,0c0-2.962,0-6.038,0-9c0.518,0,0.982,0,1.5,0
  C66.505,39.481,66.493,41.02,66.499,42.5z M83.997,38c0,0.466,0,1.034,0,1.5c-1.672,0-3.33,0-5,0c0,0.771-0.018,1.51-0.018,2.28
  c1.479,0,2.961,0,4.439,0c0,0.466,0,0.931,0,1.397c-1.479,0-2.961,0-4.439,0c0,0.794,0,1.588,0,2.382c1.688,0,3.377,0,5.064,0
  c0,0.466,0,0.932,0,1.397c-2.205,0-4.412,0-6.617,0c0-2.961,0.07-5.995,0.07-8.957C79.685,38,81.81,38,83.997,38z M94.995,39.505
  c-0.934,0-1.566-0.005-2.5-0.005c0,2.484,0,5.016,0,7.5c-0.523,0-0.977,0-1.5,0c0-2.484,0-5.016,0-7.5c-0.939,0-1.561,0-2.5,0
  c0-0.478,0-1.021,0-1.5c2.396,0,4.104,0,6.5,0C94.995,38.479,94.995,39.027,94.995,39.505z"/>
</svg>
