<?xml version="1.0" encoding="UTF-8" standalone="no"?>
<svg width="240px" height="60px" viewBox="0 0 240 60" version="1.1" xmlns="http://www.w3.org/2000/svg" xmlns:xlink="http://www.w3.org/1999/xlink" xmlns:sketch="http://www.bohemiancoding.com/sketch/ns">
    <!-- Generator: Sketch 3.3.2 (12043) - http://www.bohemiancoding.com/sketch -->
    <title>Shape</title>
    <desc>Created with Sketch.</desc>
    <defs></defs>
    <g id="Page-1" stroke="none" stroke-width="1" fill="none" fill-rule="evenodd" sketch:type="MSPage">
        <g id="dribbble-logo-graph-dnld-3abcb384fc4a2fefcf88bd30a66c3ebc" sketch:type="MSLayerGroup" transform="translate(0.000000, -70.000000)" fill="#333333">
            <path d="M18.68,75.49 C20.12,71.7 24.62,68.98 28.56,70.59 C32.95,73.11 34.27,78.58 34.83,83.25 C35.73,94.62 32.35,105.8 28.21,116.25 C29.34,118.68 31.15,123.94 34.62,121.69 C38.26,118.22 38.98,112.84 40.06,108.15 C41.13,103.91 40.06,99.43 41.19,95.24 C43.53,93.17 46.23,95.24 48.02,96.94 C51.25,100.08 57.34,97.96 59.72,102.23 C61.29,108.28 58.33,114.7 60.26,120.75 C60.6,122.1 61.47,122.65 62.87,122.39 C65.34,121.22 67.21,118.98 68.24,116.48 C70.13,111.06 68.63,105.05 70.71,99.68 C72.51,99.18 75.26,98.51 76.44,100.4 C77.15,108.05 75.12,116.41 79.19,123.43 C81.2,122.06 83.15,120.46 84.17,118.18 C86.31,113.79 88.46,109.07 88.13,104.06 C87.79,95.07 87.58,85.81 90.25,77.12 C91.28,73.97 93.26,70.15 97.03,70 C100.84,69.69 103.97,73.19 103.96,76.86 C104.22,86.71 101.18,96.37 97.14,105.26 C95.23,109.46 95.6,114.46 97.21,118.69 C98.34,121.68 101.57,124.58 104.94,123.3 C108.42,122.03 109.49,118.12 110.55,114.97 C106.76,111.91 102.17,105.67 106.24,101.18 C111.14,99.64 115.16,104.56 116.25,108.88 C117.56,107.99 118.87,107.1 120.17,106.2 C119.84,95.17 118.69,83.12 124.17,73.09 C127.02,67.72 135.72,70.04 136,75.96 C136.69,86.37 133.2,96.57 128.99,105.94 C127.45,109.94 127.83,114.55 129.28,118.52 C130.37,121.56 133.59,124.52 137.02,123.33 C140.54,122.09 141.61,118.16 142.69,115 C138.5,112.08 133.64,105.53 137.91,100.79 C142.88,100.87 146.22,105.16 148.28,109.21 C149.59,107.98 152.16,107.3 151.89,105.08 C151.7,96.19 151.29,87.09 153.75,78.43 C154.77,75.16 156.44,71.22 160.14,70.38 C164.12,69.44 167.93,72.97 167.97,76.91 C168.35,86.98 165.11,96.84 161,105.92 C159.21,110.42 159.64,115.77 161.81,120.07 C163.13,122.81 166.56,124.88 169.51,123.33 C172.6,121.85 173.53,118.27 174.55,115.3 C171.6,113.27 168.66,110.67 168.06,106.94 C167.35,104.6 168.81,102.48 169.78,100.48 C174.4,101.65 177.9,105.06 179.98,109.24 C181.16,108.96 182.34,108.68 183.52,108.39 C181.95,99.41 181.35,90.08 183.35,81.12 C184.17,77.79 185.37,74.35 187.89,71.92 C191.04,68.79 197.08,69.57 199.24,73.48 C200.71,76.05 201,79.09 201.04,82 C200.98,92.76 197.93,103.89 190.61,112.02 C192.02,116 193.29,120.71 197.24,122.93 C199.86,124.45 202.58,122.59 204.95,121.48 C202.83,115.52 202.47,108.51 205.88,102.95 C208.71,97.99 215.59,95.41 220.76,98.24 C224.79,100.48 225.5,105.77 224.45,109.87 C223.18,115.27 218.99,119.25 214.66,122.37 C218.44,123.49 222.69,124.37 226.41,122.52 C231.48,120.33 234.04,115.17 236.59,110.63 C237.79,111.97 238.95,113.34 240,114.8 L240,116.8 C236.83,122.62 231.68,127.88 224.96,129.18 C219.41,130.49 213.7,128.83 208.91,126 C205.24,128.39 200.9,131.06 196.36,129.48 C189.9,127.26 186.91,120.45 184.83,114.48 C183.37,114.83 181.92,115.18 180.46,115.52 C179.62,119.47 178.45,123.6 175.42,126.46 C171.63,130.45 164.69,131.33 160.39,127.67 C156.1,124.09 154.5,118.46 153.29,113.23 C151.61,114.25 149.9,115.23 148.19,116.2 C147.09,119.99 145.91,124.09 142.79,126.76 C138.99,130.12 132.58,131 128.61,127.44 C124.41,123.78 122.78,118.21 121.43,113 C119.7,113.85 117.96,114.67 116.2,115.45 C115.21,119.29 114.09,123.35 111.2,126.25 C107.33,130.42 100.09,131.02 95.8,127.15 C93.01,124.85 91.71,121.34 90.63,118 C88.67,122.89 85.85,128.96 79.98,129.75 C75.83,130.31 73.04,126.75 70.96,123.73 C68.91,125.74 66.98,128.06 64.3,129.25 C60.96,130.66 56.69,129.18 55.16,125.83 C51.99,119.59 53.38,112.38 52.54,105.7 C50.91,105.06 49.21,104.65 47.53,104.17 C45.97,111.37 44.47,118.91 40.12,125.03 C38.11,127.87 34.79,130.36 31.12,129.7 C28.28,129.12 26.71,126.41 24.93,124.4 C21.91,127.79 17.66,130.47 12.92,129.86 C5.77,129.6 0.54,122.95 0,116.15 L0,112.62 C0.74,107.82 3.21,102.99 7.69,100.72 C10.56,99.04 13.98,99.26 17.16,99.47 C16.56,91.51 15.59,83.07 18.68,75.49 Z M188.53,83.1 C189.11,80.62 189.76,77.69 192.13,76.3 C194.42,75.24 195,78.42 195.24,79.99 C196.04,88.78 193.44,97.75 188.62,105.08 C187.55,97.82 187.26,90.36 188.53,83.1 Z M23.25,81.07 C23.62,78.97 24.99,77.28 26.98,76.5 C30.69,86.37 29.19,97.65 25.28,107.24 C22.17,98.96 21.15,89.72 23.25,81.07 Z M94.73,80.47 C95.04,78.76 96.25,77.48 97.79,76.75 C98.83,84.57 96.45,92.46 93.65,99.7 C93.22,93.3 93.18,86.74 94.73,80.47 Z M126.8,80.78 C127.1,78.94 128.31,77.55 129.89,76.66 C131.04,84.45 128.6,92.36 125.79,99.57 C125.36,93.31 125.34,86.91 126.8,80.78 Z M158.41,82.09 C158.7,80.06 159.91,78.36 161.13,76.78 C162.06,78.32 162.44,80.11 162.16,81.9 C161.54,88.09 160.07,94.22 157.68,99.97 C157.24,94.02 157.29,87.97 158.41,82.09 Z M71.33,84.4 C74.47,82.81 78.47,85.56 78.32,89.02 C78.56,92.82 73.83,95.58 70.69,93.36 C67.37,91.41 67.74,85.84 71.33,84.4 Z M214.39,103.44 C217.1,102.24 219.53,105.24 218.64,107.82 C217.89,112.28 214,115.17 210.62,117.73 C208.74,112.94 208.87,105.67 214.39,103.44 Z M10.44,105.72 C12.92,104.71 16.23,104.78 18.2,106.78 C19.48,110.17 20.59,113.63 21.73,117.07 C21.38,122.11 15.17,125.76 10.55,123.51 C4.02,120.2 3.92,109.08 10.44,105.72 Z" id="Shape" sketch:type="MSShapeGroup"></path>
        </g>
    </g>
</svg>