<?xml version="1.0" encoding="utf-8"?>
<!-- Generator: Adobe Illustrator 17.0.0, SVG Export Plug-In . SVG Version: 6.00 Build 0)  -->
<!DOCTYPE svg PUBLIC "-//W3C//DTD SVG 1.1//EN" "http://www.w3.org/Graphics/SVG/1.1/DTD/svg11.dtd">
<svg version="1.1" id="Layer_1" xmlns="http://www.w3.org/2000/svg" xmlns:xlink="http://www.w3.org/1999/xlink" x="0px" y="0px"
	 width="122px" height="22px" viewBox="0 0 122 22" enable-background="new 0 0 122 22" xml:space="preserve">
<path fill="#71BAE3" d="M9.513,0c2.296,0,4.21,0.741,5.741,2.222c0.197-1.231,0.853-1.846,1.968-1.846
	c1.356,0,2.034,0.626,2.034,1.878c0,0.209-0.044,0.626-0.131,1.252c-0.131,0.939-0.197,1.575-0.197,1.909
	c0,0.376,0.021,0.657,0.066,0.845c0.044,0.668,0.066,1.044,0.066,1.127c0,0.543-0.252,0.996-0.755,1.361
	c-0.503,0.365-1.148,0.548-1.936,0.548c-1.269,0-2.034-0.595-2.296-1.784c-0.262-1.189-0.64-2.008-1.132-2.457
	c-0.492-0.448-1.274-0.673-2.346-0.673c-1.422,0-2.521,0.631-3.297,1.893c-0.777,1.263-1.164,3.051-1.164,5.367
	c0,1.961,0.377,3.489,1.132,4.585c0.755,1.095,1.799,1.643,3.133,1.643c0.853,0,1.558-0.235,2.116-0.704
	c0.558-0.469,0.837-1.059,0.837-1.768c0-0.877-0.383-1.315-1.148-1.315c-0.044,0-0.11,0-0.197,0
	c-0.088,0.021-0.164,0.031-0.23,0.031c-0.35,0.042-0.547,0.062-0.59,0.062c-0.438,0-0.809-0.182-1.115-0.548
	c-0.307-0.365-0.459-0.818-0.459-1.361c0-0.626,0.219-1.127,0.656-1.502c0.437-0.375,1.006-0.563,1.706-0.563
	c0.459,0,1.153,0.058,2.083,0.172c0.929,0.115,1.635,0.172,2.116,0.172c0.722,0,1.52-0.063,2.395-0.191
	c0.7-0.101,1.181-0.153,1.443-0.153c0.7,0,1.263,0.201,1.689,0.601c0.427,0.401,0.64,0.941,0.64,1.619
	c0,0.597-0.153,1.095-0.459,1.496c-0.306,0.401-0.689,0.601-1.148,0.601h-0.788c-0.59,0-0.885,0.473-0.885,1.42
	c0,0.4,0.011,0.821,0.033,1.263l0.066,1.357c0.022,0.463,0.033,0.905,0.033,1.326c0,1.409-0.809,2.114-2.427,2.114
	c-1.531,0-2.296-0.512-2.296-1.534v-0.188C12.958,21.427,11.241,22,9.316,22c-1.684,0-3.27-0.422-4.757-1.267
	c-1.487-0.845-2.57-1.945-3.248-3.302C0.437,15.699,0,13.686,0,11.391c0-3.505,0.853-6.28,2.559-8.324C4.265,1.022,6.582,0,9.513,0z
	"/>
<path fill="#71BAE3" d="M29.393,21.969c-2.712,0-4.806-0.73-6.282-2.191c-1.476-1.46-2.214-3.516-2.214-6.165
	c0-2.629,0.732-4.679,2.198-6.149c1.465-1.471,3.521-2.206,6.167-2.206c2.602,0,4.653,0.73,6.151,2.19
	c1.498,1.461,2.247,3.464,2.247,6.009c0,2.671-0.727,4.757-2.182,6.259C34.023,21.218,31.995,21.969,29.393,21.969z M29.262,9.107
	c-0.963,0-1.722,0.402-2.28,1.205c-0.558,0.803-0.837,1.904-0.837,3.301c0,1.419,0.279,2.525,0.837,3.317
	c0.558,0.793,1.339,1.189,2.346,1.189c2.034,0,3.051-1.502,3.051-4.507S31.339,9.107,29.262,9.107z"/>
<path fill="#71BAE3" d="M45.598,21.969c-2.712,0-4.806-0.73-6.282-2.191c-1.476-1.46-2.214-3.516-2.214-6.165
	c0-2.629,0.732-4.679,2.198-6.149c1.465-1.471,3.521-2.206,6.167-2.206c2.602,0,4.653,0.73,6.151,2.19
	c1.498,1.461,2.247,3.464,2.247,6.009c0,2.671-0.727,4.757-2.181,6.259C50.229,21.218,48.201,21.969,45.598,21.969z M45.467,9.107
	c-0.963,0-1.722,0.402-2.28,1.205c-0.558,0.803-0.837,1.904-0.837,3.301c0,1.419,0.279,2.525,0.837,3.317
	c0.558,0.793,1.339,1.189,2.346,1.189c2.034,0,3.051-1.502,3.051-4.507S47.545,9.107,45.467,9.107z"/>
<path fill="#71BAE3" d="M60.262,5.476c1.662,0,3.193,0.616,4.593,1.846V5.07c0-0.751-0.274-1.127-0.82-1.127
	c-0.131,0-0.394,0.021-0.787,0.062c-0.284,0.084-0.569,0.125-0.853,0.125c-0.416,0-0.766-0.167-1.05-0.501
	c-0.285-0.334-0.426-0.751-0.426-1.252c0-1.335,0.743-2.003,2.231-2.003c0.481,0,0.831,0.011,1.05,0.031
	c0.874,0.084,1.465,0.125,1.771,0.125c0.284,0,0.7-0.026,1.246-0.078c0.547-0.052,0.951-0.078,1.214-0.078
	c0.547,0,0.924,0.121,1.132,0.362c0.208,0.242,0.312,0.687,0.312,1.337V16.39c0,1.07,0.208,1.604,0.623,1.604
	c0.131,0,0.295-0.044,0.492-0.132c0.131-0.058,0.306-0.087,0.525-0.087c0.94,0,1.411,0.532,1.411,1.596
	c0,0.647-0.164,1.174-0.492,1.581c-0.328,0.407-0.766,0.61-1.312,0.61h-0.197l-1.148-0.188c-0.263-0.042-0.635-0.063-1.116-0.063
	c-0.569,0-1.039,0.021-1.411,0.063c-0.547,0.063-0.842,0.094-0.886,0.094c-0.678,0-1.017-0.375-1.017-1.126v-1.158
	c-1.138,1.857-2.844,2.785-5.118,2.785c-2.012,0-3.669-0.787-4.97-2.363c-1.302-1.575-1.952-3.562-1.952-5.962
	c0-2.441,0.64-4.413,1.919-5.915C56.506,6.227,58.184,5.476,60.262,5.476z M61.41,9.42c-0.81,0-1.471,0.365-1.985,1.095
	c-0.514,0.731-0.803,1.721-0.869,2.973v0.407c0,1.273,0.257,2.274,0.771,3.004c0.514,0.731,1.208,1.096,2.083,1.096
	c0.962,0,1.744-0.396,2.345-1.189c0.601-0.793,0.902-1.846,0.902-3.161c0-1.272-0.295-2.295-0.886-3.067
	C63.181,9.806,62.394,9.42,61.41,9.42z"/>
<path fill="#71BAE3" d="M87.195,12.267c0,0.876-0.115,1.461-0.345,1.752c-0.23,0.292-0.684,0.438-1.361,0.438h-8.004
	c-0.394,0-0.64,0.037-0.738,0.11c-0.098,0.073-0.148,0.256-0.148,0.548c0,0.876,0.295,1.607,0.886,2.19
	c0.59,0.585,1.334,0.877,2.231,0.877c0.918,0,1.859-0.48,2.821-1.44c0.656-0.668,1.378-1.002,2.165-1.002
	c0.656,0,1.186,0.178,1.591,0.532c0.405,0.355,0.607,0.803,0.607,1.345c0,1.211-0.694,2.238-2.083,3.083
	c-1.389,0.845-3.078,1.268-5.068,1.268c-2.603,0-4.68-0.751-6.233-2.253c-1.553-1.502-2.329-3.505-2.329-6.009
	c0-2.524,0.771-4.563,2.313-6.118c1.542-1.554,3.56-2.331,6.053-2.331c2.318,0,4.171,0.637,5.56,1.909
	C86.5,8.439,87.195,10.139,87.195,12.267z M76.763,10.703c0,0.125,0.033,0.23,0.098,0.313c0.066,0.083,0.295,0.125,0.689,0.125
	h3.674c0.328,0,0.53-0.036,0.607-0.109c0.076-0.073,0.115-0.204,0.115-0.391c0-0.542-0.251-1.017-0.754-1.424
	c-0.503-0.407-1.094-0.61-1.771-0.61c-0.875,0-1.586,0.324-2.132,0.97C76.938,9.994,76.763,10.369,76.763,10.703z"/>
<path fill="#71BAE3" d="M102.809,12.267c0,0.876-0.115,1.461-0.344,1.752c-0.23,0.292-0.684,0.438-1.361,0.438h-8.004
	c-0.394,0-0.64,0.037-0.738,0.11c-0.098,0.073-0.148,0.256-0.148,0.548c0,0.876,0.295,1.607,0.886,2.19
	c0.59,0.585,1.334,0.877,2.231,0.877c0.918,0,1.859-0.48,2.821-1.44c0.656-0.668,1.377-1.002,2.165-1.002
	c0.656,0,1.186,0.178,1.591,0.532c0.405,0.355,0.607,0.803,0.607,1.345c0,1.211-0.695,2.238-2.083,3.083
	c-1.389,0.845-3.078,1.268-5.068,1.268c-2.603,0-4.681-0.751-6.233-2.253c-1.553-1.502-2.329-3.505-2.329-6.009
	c0-2.524,0.771-4.563,2.313-6.118c1.542-1.554,3.559-2.331,6.052-2.331c2.318,0,4.171,0.637,5.561,1.909
	C102.115,8.439,102.809,10.139,102.809,12.267z M92.377,10.703c0,0.125,0.033,0.23,0.098,0.313c0.066,0.083,0.295,0.125,0.689,0.125
	h3.674c0.328,0,0.53-0.036,0.607-0.109c0.076-0.073,0.115-0.204,0.115-0.391c0-0.542-0.252-1.017-0.755-1.424
	c-0.503-0.407-1.094-0.61-1.771-0.61c-0.875,0-1.586,0.324-2.132,0.97C92.552,9.994,92.377,10.369,92.377,10.703z"/>
<path fill="#71BAE3" d="M109.337,5.476c1.662,0,3.193,0.616,4.593,1.846V5.07c0-0.751-0.274-1.127-0.82-1.127
	c-0.131,0-0.394,0.021-0.787,0.062c-0.285,0.084-0.569,0.125-0.853,0.125c-0.416,0-0.766-0.167-1.05-0.501
	c-0.285-0.334-0.426-0.751-0.426-1.252c0-1.335,0.743-2.003,2.231-2.003c0.481,0,0.831,0.011,1.05,0.031
	c0.874,0.084,1.465,0.125,1.771,0.125c0.284,0,0.7-0.026,1.246-0.078c0.547-0.052,0.951-0.078,1.214-0.078
	c0.547,0,0.924,0.121,1.132,0.362c0.208,0.242,0.312,0.687,0.312,1.337V16.39c0,1.07,0.208,1.604,0.623,1.604
	c0.131,0,0.295-0.044,0.492-0.132c0.131-0.058,0.306-0.087,0.525-0.087c0.94,0,1.411,0.532,1.411,1.596
	c0,0.647-0.164,1.174-0.492,1.581c-0.328,0.407-0.766,0.61-1.312,0.61h-0.197l-1.148-0.188c-0.263-0.042-0.635-0.063-1.115-0.063
	c-0.569,0-1.039,0.021-1.411,0.063c-0.547,0.063-0.842,0.094-0.886,0.094c-0.678,0-1.017-0.375-1.017-1.126v-1.158
	c-1.138,1.857-2.843,2.785-5.118,2.785c-2.012,0-3.669-0.787-4.97-2.363c-1.302-1.575-1.952-3.562-1.952-5.962
	c0-2.441,0.64-4.413,1.919-5.915C105.581,6.227,107.259,5.476,109.337,5.476z M110.486,9.42c-0.81,0-1.471,0.365-1.985,1.095
	c-0.514,0.731-0.804,1.721-0.869,2.973v0.407c0,1.273,0.256,2.274,0.771,3.004c0.513,0.731,1.208,1.096,2.083,1.096
	c0.962,0,1.744-0.396,2.345-1.189c0.601-0.793,0.902-1.846,0.902-3.161c0-1.272-0.295-2.295-0.886-3.067
	C112.257,9.806,111.47,9.42,110.486,9.42z"/>
</svg>
