<?xml version="1.0" encoding="UTF-8" standalone="no"?>
<svg width="786px" height="264px" viewBox="0 0 786 264" version="1.1" xmlns="http://www.w3.org/2000/svg" xmlns:xlink="http://www.w3.org/1999/xlink" xmlns:sketch="http://www.bohemiancoding.com/sketch/ns">
    <!-- Generator: Sketch 3.3.2 (12043) - http://www.bohemiancoding.com/sketch -->
    <title>Fill 1</title>
    <desc>Created with Sketch.</desc>
    <defs></defs>
    <g id="Page-1" stroke="none" stroke-width="1" fill="none" fill-rule="evenodd" sketch:type="MSPage">
        <g id="invision-logo-pink" sketch:type="MSLayerGroup" fill="#DE466C">
            <g id="Group-4" sketch:type="MSShapeGroup">
                <path d="M612.171,207.452 C578.549,207.452 553.701,181.766 553.701,150.238 C553.701,118.494 578.762,92.396 612.59,92.396 C646.415,92.396 671.27,118.082 671.27,149.819 C671.27,181.35 646.212,207.452 612.171,207.452 L612.171,207.452 Z M612.171,114.528 C591.914,114.528 578.968,130.403 578.968,149.819 C578.968,169.448 592.958,185.529 612.59,185.529 C633.05,185.529 645.999,169.657 645.999,150.238 C645.999,130.606 632.006,114.528 612.171,114.528 L612.171,114.528 Z M454.315,207.036 C438.744,207.036 421.531,201.451 407.791,190.721 C413.855,182.098 420.536,180.118 425.393,180.118 C428.613,180.118 431.032,180.989 431.936,181.37 C439.815,185.083 447.72,186.988 454.94,186.988 C465.798,186.988 472.065,182.394 472.065,175.083 L472.065,174.667 C472.065,166.107 460.369,163.184 447.419,159.218 C431.132,154.623 412.966,147.941 412.966,126.853 L412.966,126.434 C412.966,105.548 430.298,92.812 452.22,92.812 C466.011,92.812 481.041,97.616 492.737,105.346 C486.437,115.129 479.322,117.316 474.219,117.316 C471.964,117.316 470.101,116.888 468.876,116.501 C468.393,116.319 467.909,116.129 467.433,115.961 C467.328,115.913 467.274,115.886 467.274,115.886 L467.278,115.9 C461.74,113.957 456.382,112.859 451.595,112.859 C441.781,112.859 436.142,117.454 436.142,123.927 L436.142,124.346 C436.142,132.279 448.048,135.616 460.997,139.799 C477.075,144.809 495.241,152.12 495.241,171.954 L495.241,172.37 C495.241,195.556 477.278,207.036 454.315,207.036 L454.315,207.036 Z M311.075,205.779 L288.315,205.779 L264,146.175 L264,94.697 L270.147,94.697 L299.798,175.711 L329.66,94.697 L356.179,94.697 L311.075,205.779 L311.075,205.779 Z M785.484,204.948 L760.217,204.948 L760.217,142.299 C760.217,125.177 751.659,115.366 736.622,115.366 C722.003,115.366 711.77,125.596 711.77,142.717 L711.77,204.948 L686.506,204.948 L686.506,94.697 L711.77,94.697 L711.77,111.815 C718.871,101.376 729.101,92.396 746.227,92.396 C771.075,92.396 785.484,109.102 785.484,134.785 L785.484,204.948 L785.484,204.948 Z M511.94,94.697 L537.211,94.697 L537.211,204.948 L511.94,204.948 L511.94,94.697 Z M368.699,94.697 L393.966,94.697 L393.966,204.948 L368.699,204.948 L368.699,94.697 Z M240.068,264 L23.932,264 C10.715,264 -5.68434189e-14,253.285 -5.68434189e-14,240.068 L-5.68434189e-14,23.932 C-5.68434189e-14,10.715 10.715,0 23.932,0 L240.068,0 C253.285,0 264,10.715 264,23.932 L264,94.697 L243,94.697 L264,146.175 L264,240.068 C264,253.285 253.285,264 240.068,264 Z M53.581,98 L47.889,119 L66.623,119 L54.529,168.412 C53.581,172.444 53.105,176.798 53.105,180.35 C53.105,194.345 60.695,203.636 76.822,203.636 C90.198,203.636 101.041,195.692 108.848,182.867 L104.081,202 L130.642,202 L145.822,141.116 C149.615,125.7 156.967,117.699 168.115,117.699 C176.89,117.699 182.345,123.156 182.345,132.165 C182.345,134.776 182.107,137.619 181.159,140.703 L173.332,168.688 C172.146,172.72 171.673,176.755 171.673,180.546 C171.673,193.832 179.498,203.55 195.862,203.55 C209.855,203.55 221.002,194.542 227.168,172.959 L216.734,168.93 C211.516,183.39 207.009,186.004 203.453,186.004 C199.894,186.004 197.996,183.634 197.996,178.893 C197.996,176.759 198.473,174.39 199.182,171.538 L206.773,144.273 C208.67,137.871 209.382,132.193 209.382,126.978 C209.382,106.582 197.048,95.938 182.107,95.938 C168.115,95.938 153.884,108.559 146.771,121.842 L151.987,98 L111.433,98 L105.741,119 L124.714,119 L113.032,165.778 C104.961,183.715 90.953,186.133 86.255,186.133 C85.611,186.133 85.141,186.088 84.887,186.031 C81.413,185.248 79.193,183.929 79.193,179.416 C79.193,176.812 79.666,173.072 80.853,168.562 L98.642,98 L53.581,98 M87.968,51.533 C79.193,51.533 71.842,58.41 71.842,67.419 C71.842,76.434 79.193,83.313 87.968,83.313 C96.744,83.313 104.095,76.434 104.095,67.419 C104.095,58.41 96.744,51.533 87.968,51.533 Z M264,146.175 L243,94.697 L264,94.697 L264,146.175 Z" id="Fill-1"></path>
            </g>
        </g>
    </g>
</svg>