<?xml version="1.0" encoding="UTF-8" standalone="no"?>
<svg width="127px" height="101px" viewBox="0 0 127 101" version="1.1" xmlns="http://www.w3.org/2000/svg" xmlns:xlink="http://www.w3.org/1999/xlink" xmlns:sketch="http://www.bohemiancoding.com/sketch/ns">
    <!-- Generator: Sketch 3.3.2 (12043) - http://www.bohemiancoding.com/sketch -->
    <title>Panda-face</title>
    <desc>Created with Sketch.</desc>
    <defs></defs>
    <g id="Page-1" stroke="none" stroke-width="1" fill="none" fill-rule="evenodd" sketch:type="MSPage">
        <g id="Panda-face" sketch:type="MSLayerGroup">
            <path d="M91,17.051 C91,8.043 98.304,3 107.315,3 C116.325,3 123.631,10.302 123.631,19.309 C123.631,28.317 117.793,35.618 108.782,35.618 C103.435,35.618 104.774,33.049 101.378,29.077 L91,17.051" id="Fill-21" fill="#0A0B09" sketch:type="MSShapeGroup"></path>
            <path d="M109.209,37.782 C104.726,37.782 103.475,36.039 102.198,33.578 C101.73,32.677 101.026,31.653 100.05,30.512 L89,17.907 L89,17.133 C89,7.635 96.738,1 107.569,1 C117.713,1 126.053,9.25 126.053,19.391 C126.053,30.047 119.019,37.782 109.209,37.782 M93.53,16.385 L103.38,27.8 C104.674,29.312 105.378,30.669 105.893,31.661 C106.793,33.397 106.909,33.62 109.209,33.62 C116.607,33.62 121.977,27.636 121.977,19.391 C121.977,11.545 115.59,5.163 107.742,5.163 C97.706,5.163 93.856,11.046 93.53,16.385" id="Fill-22" fill="#0A0B09" sketch:type="MSShapeGroup"></path>
            <path d="M34.632,17.051 C34.632,8.043 27.327,3 18.316,3 C9.305,3 2,10.302 2,19.309 C2,28.317 7.838,35.618 16.849,35.618 C22.196,35.618 20.856,33.049 24.253,29.077 L34.632,17.051" id="Fill-23" fill="#0A0B09" sketch:type="MSShapeGroup"></path>
            <path d="M16.93,37.782 C7.12,37.782 -1.13686838e-13,30.047 -1.13686838e-13,19.391 C-1.13686838e-13,9.25 8.431,1 18.575,1 C29.407,1 37.15,7.635 37.15,17.133 L37.15,17.907 L26.088,30.519 C25.118,31.654 24.498,32.677 24.03,33.579 C22.753,36.04 21.413,37.782 16.93,37.782 M18.397,5.163 C10.548,5.163 4.163,11.545 4.163,19.391 C4.163,27.636 9.532,33.62 16.93,33.62 C19.23,33.62 19.346,33.397 20.246,31.661 C20.761,30.669 21.465,29.312 22.752,27.806 L32.609,16.385 C32.284,11.046 28.433,5.163 18.397,5.163" id="Fill-24" fill="#0A0B09" sketch:type="MSShapeGroup"></path>
            <path d="M28.598,19.799 C28.598,25.212 24.212,29.598 18.799,29.598 C13.388,29.598 9,25.212 9,19.799 C9,14.388 13.388,10 18.799,10 C24.212,10 28.598,14.388 28.598,19.799" id="Fill-25" fill="#FFFFFF" sketch:type="MSShapeGroup"></path>
            <path d="M116.597,19.799 C116.597,25.212 112.211,29.598 106.798,29.598 C101.387,29.598 97,25.212 97,19.799 C97,14.388 101.387,10 106.798,10 C112.211,10 116.597,14.388 116.597,19.799" id="Fill-26" fill="#FFFFFF" sketch:type="MSShapeGroup"></path>
            <path d="M63.431,100.196 L63.416,100.196 C32.342,100.196 8,77.272 8,47.91 C8,19.712 30.789,0.089 63.419,0 C95.036,0.092 118.861,20.547 118.861,47.844 C118.861,76.22 93.484,100.196 63.445,100.196 L63.431,100.196 M63.418,8.458 C35.7,8.533 16.325,24.864 16.325,48.174 C16.325,72.879 37.013,92.303 63.429,92.399 C88.965,92.299 110.535,72.049 110.535,48.174 C110.535,22.466 86.259,8.524 63.418,8.458" id="Fill-27" fill="#0A0B09" sketch:type="MSShapeGroup"></path>
            <path d="M112.287,48.399 C112.287,72.941 89.71,93.878 63.144,93.878 C36.577,93.878 14,73.982 14,49.439 C14,24.895 36.577,5 63.144,5 C89.71,5 112.287,23.854 112.287,48.399" id="Fill-28" fill="#FFFFFF" sketch:type="MSShapeGroup"></path>
            <path d="M72.992,57.463 C72.992,60.481 68.741,62.926 63.496,62.926 C58.252,62.926 54,60.481 54,57.463 C54,55.07 54.593,53.036 58.314,52.298 C59.286,52.104 62.41,52 63.496,52 C64.633,52 67.805,52.114 68.815,52.325 C72.466,53.087 72.992,55.099 72.992,57.463" id="Fill-29" fill="#0A0B09" sketch:type="MSShapeGroup"></path>
            <path d="M67,71.398 C67,72.835 65.835,74 64.398,74 L63.602,74 C62.165,74 61,72.835 61,71.398 L61,63.602 C61,62.165 62.165,61 63.602,61 L64.398,61 C65.835,61 67,62.165 67,63.602 L67,71.398" id="Fill-30" fill="#0A0B09" sketch:type="MSShapeGroup"></path>
            <path d="M78.095,67.6674499 C78.095,71.1634499 71.873,73.9984499 64.197,73.9984499 C56.523,73.9984499 49,70.6864499 49,67.1904499 C49,63.6944499 56.198,69.0114499 63.872,69.0114499 C71.548,69.0114499 78.095,64.1714499 78.095,67.6674499" id="Fill-31" fill="#0A0B09" sketch:type="MSShapeGroup"></path>
            <path d="M63.144,5 C36.577,5 14,24.895 14,49.439 C14,49.631 14.001,49.823 14.004,50.014 C14.352,74.268 36.741,93.84 63.066,93.878 L63.144,93.878 C62.082,93.878 61.032,93.834 59.985,93.773 C61.369,93.688 62.741,93.547 64.097,93.352 C40.857,90.083 22.325,71.673 22.325,49.439 C22.325,27.143 40.957,8.695 64.286,5.502 C62.893,5.315 61.484,5.181 60.06,5.1 C61.082,5.041 62.109,5 63.144,5" id="Fill-34" fill="#E1DEDC" sketch:type="MSShapeGroup"></path>
            <path d="M63,5 C64.422,5 65.831,5.065 67.228,5.171 C66.192,5.252 65.161,5.362 64.142,5.502 C87.374,8.615 105.899,26.168 105.899,48.399 C105.899,70.69 87.275,89.995 63.953,93.352 C64.993,93.498 66.042,93.614 67.1,93.698 C65.744,93.808 64.378,93.878 63,93.878 C89.566,93.878 112.143,72.941 112.143,48.399 C112.143,23.854 89.566,5 63,5" id="Fill-35" fill="#F1EFEE" sketch:type="MSShapeGroup"></path>
            <path d="M53.5506228,38.9798507 C52.4216228,47.5458507 46.7266228,53.8598507 40.8296228,53.0818507 C34.9326228,52.3038507 31.0676228,44.7298507 32.1956228,36.1648507 C33.3256228,27.5988507 39.0216228,21.2868507 44.9196228,22.0648507 C50.8156228,22.8418507 54.6806228,30.4148507 53.5506228,38.9798507" id="Fill-39" fill="#0A0B09" sketch:type="MSShapeGroup"></path>
            <path d="M48.249,30.625 C48.249,33.179 46.179,35.251 43.625,35.251 C41.07,35.251 39,33.179 39,30.625 C39,28.071 41.07,26 43.625,26 C46.179,26 48.249,28.071 48.249,30.625" id="Fill-40" fill="#FFFFFF" sketch:type="MSShapeGroup"></path>
            <path d="M73.1959361,38.9798507 C74.3259361,47.5458507 80.0209361,53.8598507 85.9179361,53.0818507 C91.8149361,52.3038507 95.6799361,44.7298507 94.5509361,36.1648507 C93.4219361,27.5988507 87.7259361,21.2868507 81.8279361,22.0648507 C75.9319361,22.8418507 72.0669361,30.4148507 73.1959361,38.9798507" id="Fill-41" fill="#0A0B09" sketch:type="MSShapeGroup"></path>
            <path d="M78,30.625 C78,33.179 80.07,35.251 82.624,35.251 C85.178,35.251 87.249,33.179 87.249,30.625 C87.249,28.071 85.178,26 82.624,26 C80.07,26 78,28.071 78,30.625" id="Fill-42" fill="#FFFFFF" sketch:type="MSShapeGroup"></path>
        </g>
    </g>
</svg>