<?xml version="1.0" encoding="UTF-8" standalone="no"?>
<svg width="492px" height="494px" viewBox="0 0 492 494" version="1.1" xmlns="http://www.w3.org/2000/svg" xmlns:xlink="http://www.w3.org/1999/xlink" xmlns:sketch="http://www.bohemiancoding.com/sketch/ns">
    <!-- Generator: Sketch 3.3.2 (12043) - http://www.bohemiancoding.com/sketch -->
    <title>Sleek</title>
    <desc>Created with Sketch.</desc>
    <defs></defs>
    <g id="Page-1" stroke="none" stroke-width="1" fill="none" fill-rule="evenodd" sketch:type="MSPage">
        <g id="Fill-1" sketch:type="MSLayerGroup" fill="#415FD9">
            <path d="M398.037896,0 C420.342369,0 440.657881,18.243041 443.434761,41.0087543 C443.434761,41.0087543 474.022569,294.745497 489.469218,422.880362 C489.863373,426.150001 490.651682,432.689279 490.651682,432.689279 C494.795706,466.550557 470.970764,494 437.678027,494 L53.1398838,494 C19.7449301,494 -3.6723063,469.161897 0.47597643,435.222266 L49.2456847,41.0087543 C52.0140459,18.3605696 72.2741906,0 94.6468079,0 L398.037896,0 Z M388.540398,34.0689655 C399.56512,34.0689655 409.446907,43.2790235 410.581498,54.2130044 L437.160812,303.17249 C438.312088,314.291793 426.119406,323.31222 417.86025,323.31222 L318.42779,323.726133 L318.42779,408.827586 L179.717092,323.31222 L75.5196285,323.31222 C64.6826153,323.31222 56.8531027,314.102162 57.9876937,303.17249 L82.4608068,54.2130044 C83.6162543,43.089392 93.4438152,34.0689655 104.501907,34.0689655 L388.540398,34.0689655 Z M143,219 C143,209.611159 150.608433,202 159.992609,202 L335.007391,202 C344.39215,202 352,209.609095 352,219 C352,228.388841 344.391567,236 335.007391,236 L159.992609,236 C150.60785,236 143,228.390905 143,219 Z M143,145 C143,135.611159 150.608433,128 159.992609,128 L335.007391,128 C344.39215,128 352,135.609095 352,145 C352,154.388841 344.391567,162 335.007391,162 L159.992609,162 C150.60785,162 143,154.390905 143,145 Z" id="Sleek" sketch:type="MSShapeGroup"></path>
        </g>
    </g>
</svg>