<?xml version="1.0" encoding="UTF-8" standalone="no"?>
<svg width="1200px" height="800px" viewBox="0 0 1200 800" version="1.1" xmlns="http://www.w3.org/2000/svg" xmlns:xlink="http://www.w3.org/1999/xlink" xmlns:sketch="http://www.bohemiancoding.com/sketch/ns">
    <!-- Generator: Sketch 3.3.2 (12043) - http://www.bohemiancoding.com/sketch -->
    <title>TheFamily-LOGO</title>
    <desc>Created with Sketch.</desc>
    <defs></defs>
    <g id="Page-1" stroke="none" stroke-width="1" fill="none" fill-rule="evenodd" sketch:type="MSPage">
        <g id="TheFamily-LOGO" sketch:type="MSLayerGroup">
            <path d="M0,0 L1200,0 L1200,800 L0,800 L0,0 L0,0 Z" id="Shape" fill="transparent" sketch:type="MSShapeGroup"></path>
            <path d="M273.3,19.32 C492.78,19.2 712.27,19.29 931.76,19.27 C931.05,135.85 930.14,252.4 929.38,368.97 C929.86,395.51 923.61,421.58 915.83,446.78 C899.49,501.44 874.02,553.38 840.54,599.59 C807.34,645.63 766.55,685.97 721.2,720 C684.28,747.88 644.23,771.41 602.76,791.84 C537.53,760.2 476.14,719.67 424.34,668.73 C369.34,615.06 325.91,549.37 299.56,477.11 C292.16,456.83 285.84,436.14 280.87,415.13 C277.71,399.62 275.49,383.83 275.86,367.97 C275.32,281.98 274.67,196.02 274.1,110.03 C273.49,80 273.7,49.53 273.3,19.32 L273.3,19.32 Z" id="Shape" fill="#1A1637" sketch:type="MSShapeGroup"></path>
            <path d="M588.5,203.49 C591.63,200.12 596.41,198.42 600.97,198.96 C608.12,199.76 615.05,201.82 621.94,203.84 C634.8,207.74 647.49,212.3 659.72,217.88 L659.15,218.65 C645.05,223.96 631.16,229.82 617.11,235.26 L616.41,235.86 C620.07,242.15 623.48,248.6 627.06,254.94 C627.89,256.82 629.56,258.49 629.31,260.69 C624.6,297.83 620.28,335.02 615.67,372.17 C615.33,374.06 615.08,375.98 614.94,377.91 C611.51,408.09 607.46,438.21 604.15,468.4 C603.32,471.92 603.4,475.57 602.58,479.09 C601.98,475.18 601.6,471.25 600.83,467.38 C597.08,437.58 592.8,407.84 588.87,378.06 C588.72,376.12 588.45,374.2 588.12,372.3 C583.03,335.1 577.94,297.91 573.04,260.69 C573.12,258.78 573.23,256.88 573.34,254.98 C574.22,243.58 575.58,232.14 578.74,221.11 C580.58,214.6 583.78,208.38 588.5,203.49 L588.5,203.49 Z" id="Shape" fill="#D33533" sketch:type="MSShapeGroup"></path>
            <path d="M299.88,254.93 C317.14,255 334.45,254.72 351.69,255.07 C353.56,256.96 355.72,258.57 357.45,260.62 C340.47,260.72 323.48,260.68 306.5,260.63 C307.84,273.81 311.65,286.87 317.07,299.01 C325.65,318.01 339.85,334.28 357.18,345.82 C376.84,359.11 399.71,366.82 422.8,371.61 C444.15,375.86 465.9,378.11 487.65,378.83 C489.88,380.57 492.25,382.3 493.89,384.64 C474.85,384.66 455.77,382.66 436.91,379.99 C417.11,376.9 397.44,372.16 378.99,364.19 C357.72,355.12 338.1,341.26 324.31,322.51 C309.71,303.02 302.02,279.01 299.88,254.93 L299.88,254.93 Z" id="Shape" fill="#D6CD28" sketch:type="MSShapeGroup"></path>
            <path d="M351.69,255.07 C425.56,254.77 499.46,254.93 573.34,254.98 C573.23,256.88 573.12,258.78 573.04,260.69 C554.5,260.56 535.97,260.65 517.44,260.64 C520.32,269.35 524.27,277.79 527.56,286.4 C539.5,316.06 551.5,345.69 563.44,375.34 C564.01,377.28 564.8,379.15 565.68,380.97 C574.14,401.65 582.4,422.41 590.8,443.12 C594.26,451.15 597.04,459.51 600.83,467.38 C601.6,471.25 601.98,475.18 602.58,479.09 C603.4,475.57 603.32,471.92 604.15,468.4 C608.79,458.45 612.42,447.99 616.73,437.87 C624.45,418.89 631.95,399.81 639.81,380.89 C640.61,379.1 641.37,377.29 641.98,375.43 C657.2,337.16 672.95,299.08 688.06,260.78 C668.49,260.47 648.89,260.65 629.31,260.69 C629.56,258.49 627.89,256.82 627.06,254.94 C702.73,254.91 778.39,254.91 854.06,254.94 C851.94,256.79 849.76,258.6 847.82,260.63 C804.45,300.08 760.98,339.41 717.57,378.82 C715.41,380.62 713.16,382.39 711.37,384.58 C676.49,415.94 641.82,447.56 607.07,479.08 C605.41,480.24 604.26,482.55 602.26,482.93 C573.95,456.84 545.25,431.15 516.81,405.18 C509.11,398.41 501.76,391.21 493.89,384.64 C492.25,382.3 489.88,380.57 487.65,378.83 C444.34,339.33 400.89,299.98 357.45,260.62 C355.72,258.57 353.56,256.96 351.69,255.07 L351.69,255.07 Z" id="Shape" fill="#479F74" sketch:type="MSShapeGroup"></path>
            <path d="M854.06,254.94 C870.94,254.87 887.82,254.94 904.71,254.91 C902.34,286.02 889.48,316.98 866.24,338.3 C851.89,351.7 834.39,361.33 816.02,368.03 C795.41,375.56 773.71,379.63 751.95,382.07 C738.48,383.35 724.88,384.87 711.37,384.58 C713.16,382.39 715.41,380.62 717.57,378.82 C738.75,378.07 759.93,375.91 780.74,371.84 C801.01,367.72 821.04,361.42 839.04,351.07 C855.58,341.67 870.17,328.54 880.34,312.39 C890.2,296.83 895.96,278.89 898.31,260.68 C881.48,260.62 864.65,260.72 847.82,260.63 C849.76,258.6 851.94,256.79 854.06,254.94 L854.06,254.94 Z" id="Shape" fill="#D6CD28" sketch:type="MSShapeGroup"></path>
            <path d="M306.5,260.63 C323.48,260.68 340.47,260.72 357.45,260.62 C400.89,299.98 444.34,339.33 487.65,378.83 C465.9,378.11 444.15,375.86 422.8,371.61 C399.71,366.82 376.84,359.11 357.18,345.82 C339.85,334.28 325.65,318.01 317.07,299.01 C311.65,286.87 307.84,273.81 306.5,260.63 L306.5,260.63 Z" id="Shape" fill="#1A1637" sketch:type="MSShapeGroup"></path>
            <path d="M366.67,260.66 C377.11,260.59 387.56,260.64 398,260.64 C405.24,267.8 411.87,275.64 418.92,283.03 C448.23,315.06 477.84,346.83 507.04,378.96 C503.66,379.11 500.29,379.09 496.92,379.04 C494.79,378.04 493.31,375.98 491.48,374.51 C450,336.92 408.64,299.21 367.09,261.7 L366.67,260.66 L366.67,260.66 Z" id="Shape" fill="#1A1637" sketch:type="MSShapeGroup"></path>
            <path d="M406.56,260.65 C416.38,260.73 426.26,260.37 436.04,260.83 C457.43,289.14 478.58,317.64 499.9,346.01 C507.9,356.86 516.2,367.53 524.04,378.47 C521.01,378.63 517.99,378.74 514.98,378.87 C478.82,339.99 443.12,300.65 406.95,261.77 L406.56,260.65 L406.56,260.65 Z" id="Shape" fill="#1A1637" sketch:type="MSShapeGroup"></path>
            <path d="M443.43,260.68 C453.29,260.67 463.21,260.43 473.03,260.81 C495.86,299.5 517.98,338.68 540.7,377.46 C537.51,377.67 534.33,377.9 531.14,378.01 C501.85,339.51 473.15,300.47 443.94,261.87 L443.43,260.68 L443.43,260.68 Z" id="Shape" fill="#1A1637" sketch:type="MSShapeGroup"></path>
            <path d="M479.92,260.84 C490.21,260.48 500.71,260.49 511,260.83 C526.03,297.56 540.75,334.44 555.64,371.23 C556.09,372.83 557.41,374.26 557.21,375.98 C553.79,376.27 550.38,376.7 546.96,376.94 C524.54,338.29 502.12,299.61 479.92,260.84 L479.92,260.84 Z" id="Shape" fill="#1A1637" sketch:type="MSShapeGroup"></path>
            <path d="M517.44,260.64 C535.97,260.65 554.5,260.56 573.04,260.69 C577.94,297.91 583.03,335.1 588.12,372.3 C579.91,373.46 571.68,374.46 563.44,375.34 C551.5,345.69 539.5,316.06 527.56,286.4 C524.27,277.79 520.32,269.35 517.44,260.64 L517.44,260.64 Z" id="Shape" fill="#1A1637" sketch:type="MSShapeGroup"></path>
            <path d="M629.31,260.69 C648.89,260.65 668.49,260.47 688.06,260.78 C672.95,299.08 657.2,337.16 641.98,375.43 C633.19,374.47 624.42,373.43 615.67,372.17 C620.28,335.02 624.6,297.83 629.31,260.69 L629.31,260.69 Z" id="Shape" fill="#1A1637" sketch:type="MSShapeGroup"></path>
            <path d="M694.22,261.18 L694.9,260.59 C705.08,260.77 715.28,260.41 725.44,260.77 C710.55,287.33 694.98,313.57 679.85,340.01 C672.59,352.29 665.78,364.91 658.25,376.97 C654.58,376.98 650.69,375.6 647.35,376.69 C663.29,338.47 678.47,299.6 694.22,261.18 L694.22,261.18 Z" id="Shape" fill="#1A1637" sketch:type="MSShapeGroup"></path>
            <path d="M732.16,260.85 C741.78,260.31 751.53,260.84 761.2,260.58 L762.05,260.94 C738.82,292.06 715.51,323.12 692.25,354.22 C686.16,362.12 680.48,370.42 674.14,378.09 C671.07,377.88 668,377.78 664.94,377.5 C687.06,338.49 709.82,299.76 732.16,260.85 L732.16,260.85 Z" id="Shape" fill="#1A1637" sketch:type="MSShapeGroup"></path>
            <path d="M769.19,260.92 C778.91,260.21 788.86,260.88 798.68,260.59 L797.64,262.59 C762.56,300.54 727.64,338.63 692.61,376.63 C691.75,377.32 691.22,378.6 690.08,378.85 C687.09,378.79 684.1,378.63 681.12,378.51 C710.56,339.38 739.84,300.12 769.19,260.92 L769.19,260.92 Z" id="Shape" fill="#1A1637" sketch:type="MSShapeGroup"></path>
            <path d="M700.96,375.97 C736.37,337.6 771.62,299.08 807.08,260.77 C817.58,260.42 828.13,260.76 838.65,260.6 C838.36,261.07 837.77,262 837.47,262.47 C795.57,300.24 753.89,338.26 712.06,376.11 C710.81,377.07 709.87,378.59 708.32,379.04 C705.06,379.07 701.8,379.11 698.56,379 C698.92,377.69 700.14,376.96 700.96,375.97 L700.96,375.97 Z" id="Shape" fill="#1A1637" sketch:type="MSShapeGroup"></path>
            <path d="M717.57,378.82 C760.98,339.41 804.45,300.08 847.82,260.63 C864.65,260.72 881.48,260.62 898.31,260.68 C895.96,278.89 890.2,296.83 880.34,312.39 C870.17,328.54 855.58,341.67 839.04,351.07 C821.04,361.42 801.01,367.72 780.74,371.84 C759.93,375.91 738.75,378.07 717.57,378.82 L717.57,378.82 Z" id="Shape" fill="#1A1637" sketch:type="MSShapeGroup"></path>
            <path d="M563.44,375.34 C571.68,374.46 579.91,373.46 588.12,372.3 C588.45,374.2 588.72,376.12 588.87,378.06 C581.14,379.08 573.4,379.99 565.68,380.97 C564.8,379.15 564.01,377.28 563.44,375.34 L563.44,375.34 Z" id="Shape" fill="#D6CD28" sketch:type="MSShapeGroup"></path>
            <path d="M614.94,377.91 C615.08,375.98 615.33,374.06 615.67,372.17 C624.42,373.43 633.19,374.47 641.98,375.43 C641.37,377.29 640.61,379.1 639.81,380.89 C631.48,380.23 623.21,378.97 614.94,377.91 L614.94,377.91 Z" id="Shape" fill="#D6CD28" sketch:type="MSShapeGroup"></path>
            <path d="M546.96,376.94 C550.38,376.7 553.79,376.27 557.21,375.98 L557.74,376.26 C558.5,377.98 559.37,379.68 559.81,381.53 C556.55,381.89 553.28,382.13 550.02,382.42 C548.87,380.67 547.7,378.9 546.96,376.94 L546.96,376.94 Z" id="Shape" fill="#D6CD28" sketch:type="MSShapeGroup"></path>
            <path d="M647.35,376.69 C650.69,375.6 654.58,376.98 658.25,376.97 C657.72,378.97 656.55,381.03 655.09,382.47 C651.99,382.17 648.89,381.97 645.8,381.62 C645.43,379.81 647.43,378.44 647.08,376.56 L647.35,376.69 L647.35,376.69 Z" id="Shape" fill="#D6CD28" sketch:type="MSShapeGroup"></path>
            <path d="M531.14,378.01 C534.33,377.9 537.51,377.67 540.7,377.46 C541.41,379.35 543.7,380.94 543.34,383.05 C540.58,383.16 537.83,383.38 535.09,383.6 C533.7,381.8 532.07,380.12 531.14,378.01 L531.14,378.01 Z" id="Shape" fill="#D6CD28" sketch:type="MSShapeGroup"></path>
            <path d="M565.68,380.97 C573.4,379.99 581.14,379.08 588.87,378.06 C592.8,407.84 597.08,437.58 600.83,467.38 C597.04,459.51 594.26,451.15 590.8,443.12 C582.4,422.41 574.14,401.65 565.68,380.97 L565.68,380.97 Z" id="Shape" fill="#1A1637" sketch:type="MSShapeGroup"></path>
            <path d="M614.94,377.91 C623.21,378.97 631.48,380.23 639.81,380.89 C631.95,399.81 624.45,418.89 616.73,437.87 C612.42,447.99 608.79,458.45 604.15,468.4 C607.46,438.21 611.51,408.09 614.94,377.91 L614.94,377.91 Z" id="Shape" fill="#1A1637" sketch:type="MSShapeGroup"></path>
            <path d="M661.73,383.03 C662.39,381.04 663.47,378.99 664.94,377.5 C668,377.78 671.07,377.88 674.14,378.09 C673.19,380.16 671.78,382.15 670.08,383.65 C667.29,383.4 664.51,383.22 661.73,383.03 L661.73,383.03 Z" id="Shape" fill="#D6CD28" sketch:type="MSShapeGroup"></path>
            <path d="M496.92,379.04 C500.29,379.09 503.66,379.11 507.04,378.96 C508.95,380.59 510.92,382.46 512.2,384.65 C509.12,384.81 506.04,384.71 502.96,384.89 C500.85,383.09 498.3,381.5 496.92,379.04 L496.92,379.04 Z" id="Shape" fill="#D6CD28" sketch:type="MSShapeGroup"></path>
            <path d="M514.98,378.87 C517.99,378.74 521.01,378.63 524.04,378.47 C525.75,379.94 527.12,381.99 528.11,384.04 C525.4,384.16 522.69,384.23 519.98,384.39 C518.09,382.81 516.38,380.9 514.98,378.87 L514.98,378.87 Z" id="Shape" fill="#D6CD28" sketch:type="MSShapeGroup"></path>
            <path d="M677.22,384.08 C678,381.93 679.81,380.34 681.12,378.51 C684.1,378.63 687.09,378.79 690.08,378.85 C689.29,381.09 687.03,382.98 685.15,384.42 C682.5,384.26 679.86,384.16 677.22,384.08 L677.22,384.08 Z" id="Shape" fill="#D6CD28" sketch:type="MSShapeGroup"></path>
            <path d="M693.08,384.67 C694.56,382.57 696.38,380.27 698.56,379 C701.8,379.11 705.06,379.07 708.32,379.04 C706.91,381.42 704.42,383.53 702.05,384.88 C699.05,384.74 696.06,384.8 693.08,384.67 L693.08,384.67 Z" id="Shape" fill="#D6CD28" sketch:type="MSShapeGroup"></path>
            <path d="M550.02,382.42 C553.28,382.13 556.55,381.89 559.81,381.53 C567.43,400.66 575.35,419.67 582.86,438.84 C571.62,420.29 561.09,401.14 550.02,382.42 L550.02,382.42 Z" id="Shape" fill="#1A1637" sketch:type="MSShapeGroup"></path>
            <path d="M623.99,434.9 C631.41,417.21 638.15,399.16 645.8,381.62 C648.89,381.97 651.99,382.17 655.09,382.47 C644.88,401.12 633.73,419.35 623.36,437.95 C623.03,436.87 623.6,435.86 623.99,434.9 L623.99,434.9 Z" id="Shape" fill="#1A1637" sketch:type="MSShapeGroup"></path>
            <path d="M535.09,383.6 C537.83,383.38 540.58,383.16 543.34,383.05 L543.91,383.18 C553.53,400.07 563.6,416.74 572.96,433.76 L572.38,433.52 C560.08,416.78 547.57,400.2 535.09,383.6 L535.09,383.6 Z" id="Shape" fill="#1A1637" sketch:type="MSShapeGroup"></path>
            <path d="M633.06,432.18 C642.79,415.9 651.93,399.25 661.73,383.03 C664.51,383.22 667.29,383.4 670.08,383.65 C657.43,401.17 644,418.21 631.41,435.77 C631.6,434.44 632.41,433.32 633.06,432.18 L633.06,432.18 Z" id="Shape" fill="#1A1637" sketch:type="MSShapeGroup"></path>
            <path d="M519.98,384.39 C522.69,384.23 525.4,384.16 528.11,384.04 C534.96,392.44 541.21,401.44 547.84,410.07 C553.15,417.37 558.86,424.45 564.03,431.82 C562.73,431.26 561.96,429.96 560.96,429.05 C547.39,414.08 533.57,399.33 519.98,384.39 L519.98,384.39 Z" id="Shape" fill="#1A1637" sketch:type="MSShapeGroup"></path>
            <path d="M677.22,384.08 C679.86,384.16 682.5,384.26 685.15,384.42 C670.47,401.09 655.05,417.26 640.09,433.73 C648.94,421.1 658.58,408.99 667.69,396.53 C670.92,392.42 673.81,388.01 677.22,384.08 L677.22,384.08 Z" id="Shape" fill="#1A1637" sketch:type="MSShapeGroup"></path>
            <path d="M502.96,384.89 C506.04,384.71 509.12,384.81 512.2,384.65 C528.62,401.82 544.33,419.74 560.77,436.92 C559.48,436.43 558.53,435.41 557.53,434.52 C539.39,417.92 521.11,401.48 502.96,384.89 L502.96,384.89 Z" id="Shape" fill="#1A1637" sketch:type="MSShapeGroup"></path>
            <path d="M647.35,434.09 C662.74,417.75 677.71,401.02 693.08,384.67 C696.06,384.8 699.05,384.74 702.05,384.88 C694.06,392.9 685.23,400.18 676.97,407.97 C666.93,416.87 657.23,426.17 647.04,434.87 L647.35,434.09 L647.35,434.09 Z" id="Shape" fill="#1A1637" sketch:type="MSShapeGroup"></path>
        </g>
    </g>
</svg>