<?xml version="1.0" encoding="UTF-8" standalone="no"?>
<svg width="179px" height="32px" viewBox="0 0 179 32" version="1.1" xmlns="http://www.w3.org/2000/svg" xmlns:xlink="http://www.w3.org/1999/xlink" xmlns:sketch="http://www.bohemiancoding.com/sketch/ns">
    <!-- Generator: Sketch 3.3.2 (12043) - http://www.bohemiancoding.com/sketch -->
    <title>tigerlily</title>
    <desc>Created with Sketch.</desc>
    <defs></defs>
    <g id="Page-1" stroke="none" stroke-width="1" fill="none" fill-rule="evenodd" sketch:type="MSPage">
        <g id="tigerlily" sketch:type="MSLayerGroup" fill="#FFFFFF">
            <g id="Group" transform="translate(42.000000, 8.000000)" sketch:type="MSShapeGroup">
                <path d="M5.8,5.8 L0.9,5.8 L0.9,0.6 L16.8,0.6 L16.8,5.8 L11.9,5.8 L11.9,22.7 L5.9,22.7 L5.9,5.8 L5.8,5.8 Z M18.2,0.6 L24.3,0.6 L24.3,22.7 L18.2,22.7 L18.2,0.6 L18.2,0.6 Z M37,9.9 L48.8,9.9 L48.8,11.2 C48.8,18.8 44.5,23.2 37.3,23.2 C33.8,23.2 31,22.2 28.8,19.9 C26.7,17.8 25.5,14.7 25.5,11.6 C25.5,4.9 30.5,0.1 37.3,0.1 C41.6,0.1 45,1.8 47.2,5.2 L42,7.7 C40.8,6 39.2,5.2 37.3,5.2 C33.8,5.2 31.5,7.7 31.5,11.9 C31.5,16.1 33.8,18.7 37.3,18.7 C40.4,18.7 42.6,17 42.9,14.6 L36.9,14.6 L37,9.9 L37,9.9 Z M50,0.6 L63.5,0.6 L63.5,5.4 L55.8,5.4 L55.8,9.2 L63,9.2 L63,14 L55.8,14 L55.8,17.7 L63.5,17.7 L63.5,22.6 L50,22.6 L50,0.6 L50,0.6 Z M65.5,0.6 L72.2,0.6 C75.3,0.6 77.6,0.6 79.5,2.1 C81.1,3.3 82,5.2 82,7.5 C82,10.9 80.3,13.1 77.1,13.8 L83.1,22.7 L76.3,22.7 L71.2,14.1 L71.2,22.7 L65.6,22.7 L65.6,0.6 L65.5,0.6 Z M72.2,11 C74.7,11 75.9,10.2 75.9,8.3 C75.9,6 74.8,5.2 72.3,5.2 L71.1,5.2 L71.1,11 L72.2,11 L72.2,11 Z M84,0.6 L90,0.6 L90,17.5 L97.5,17.5 L97.5,22.7 L84,22.7 L84,0.6 L84,0.6 Z M99,0.6 L105.1,0.6 L105.1,22.7 L99,22.7 L99,0.6 L99,0.6 Z M107.1,0.6 L113.1,0.6 L113.1,17.5 L120.6,17.5 L120.6,22.7 L107.1,22.7 L107.1,0.6 L107.1,0.6 Z M122.8,12.6 L115,0.6 L121.9,0.6 L124.9,6.3 C125.1,6.6 125.4,7.2 125.6,8.2 C125.8,7.2 126.2,6.7 126.4,6.3 L129.3,0.6 L136.2,0.6 L128.5,12.6 L128.5,22.7 L122.7,22.7 L122.7,12.6 L122.8,12.6 Z" id="Shape" fill="#E25429"></path>
            </g>
            <g id="Group" sketch:type="MSShapeGroup">
                <path d="M33.1,17.9 C34.4,12.3 33.2,6.5 29.9,1.8 C29,2.3 28.1,2.9 27.3,3.6 L27.6,4.1 C27.7,4.3 27.9,4.5 28,4.8 L28.5,5.6 L28.9,6.3 L29.3,7 L29.6,7.7 L29.9,8.6 L30.2,9.3 L30.5,10.2 L30.7,10.9 L30.9,11.9 C30.9,12.1 31,12.3 31,12.6 C31.1,13 31.1,13.4 31.1,13.7 L31.2,14.3 L31.3,16 C31.3,16.5 31.3,16.9 31.2,17.4 L31.2,17.8 C31.2,18.1 31.1,18.4 31.1,18.8 C31.1,19 31.1,19.1 31,19.3 C31,19.6 30.9,19.9 30.8,20.2 L30.7,20.7 C30.6,21 30.5,21.4 30.5,21.7 L30.4,22.1 L30,23.4 C30,23.5 30,23.5 29.9,23.5 C29.8,23.9 29.6,24.3 29.5,24.6 L29.3,25 C29.2,25.3 29,25.6 28.9,25.8 L28.7,26.2 C28.6,26.5 28.4,26.7 28.3,26.9 C28.2,27 28.2,27.1 28.2,27.2 C30.4,24.9 32.3,21.5 33.1,17.9 L33.1,17.9 Z" id="Path1" fill="#F89B4D"></path>
                <path d="M24.2,29.9 C24.3,29.8 24.4,29.7 24.5,29.7 L24.9,29.3 L25.1,29.1 L25.5,28.6 L25.7,28.4 C25.9,28.2 26.1,27.9 26.3,27.6 C26.4,27.5 26.4,27.4 26.5,27.4 L26.9,26.8 C27,26.7 27,26.6 27.1,26.4 L27.4,25.9 L27.6,25.5 C27.7,25.3 27.8,25.1 27.9,25 L28.1,24.6 C28.2,24.4 28.3,24.2 28.3,24.1 L28.5,23.7 L28.7,23.1 L28.9,22.6 L29.1,22 L29.2,21.5 L29.4,20.9 L29.5,20.4 L29.6,19.8 L29.7,19.3 C29.7,19.1 29.8,18.9 29.8,18.6 C29.8,18.5 29.8,18.3 29.9,18.2 C29.9,18 29.9,17.7 30,17.5 L30,16 C30,11.6 28.6,7.3 25.9,3.8 C25.1,2.8 24.3,1.8 23.3,0.9 C19.5,4.4 17.2,9 16.8,14.1 L17.7,14.9 C18.2,15.4 18.6,15.9 19,16.4 L19.1,16.5 C19.5,17 19.9,17.5 20.2,18 L20.4,18.2 C20.7,18.7 21.1,19.2 21.4,19.8 L21.5,20.1 C21.8,20.6 22.1,21.2 22.3,21.8 C22.3,21.9 22.4,22 22.4,22 L23.1,23.8 C23.1,23.9 23.1,23.9 23.2,24 C23.4,24.6 23.6,25.3 23.7,25.9 L24,27.8 L24,27.9 C24.1,28.5 24.1,29.2 24.1,29.8 L24.1,29.9 C24,30 24.1,30 24.2,29.9 L24.2,29.9 Z" id="Path2" fill="#F46930"></path>
                <path d="M22.4,30.7 L22.4,28.8 L22.2,27 L22.2,26.8 L21.8,25 C21.8,24.9 21.8,24.9 21.7,24.8 C21.5,24.2 21.3,23.6 21.1,23.1 L21,22.9 C20.8,22.3 20.5,21.8 20.2,21.2 C20,21.1 20,21 20,21 C19.7,20.4 19.4,19.9 19,19.4 L18.9,19.3 C18.5,18.8 18.2,18.2 17.7,17.7 L17.7,17.6 C17.3,17.1 16.8,16.6 16.3,16.1 C15.9,15.7 15.6,15.4 15.2,15.1 C11.3,11.7 6.2,10 0.9,10.2 C0.8,15.9 3,21.5 7,25.5 C10.6,29.1 15.4,31.2 19.8,31.2 C20.7,31.2 21.5,31.1 22.3,31 L22.4,30.7 L22.4,30.7 Z" id="Path3" fill="#E25429"></path>
            </g>
        </g>
    </g>
    </svg>