<svg width="170px" height="30px" xmlns="http://www.w3.org/2000/svg" viewBox="0 0 177.4 30.2" enable-background="new 0 0 177.4 30.2"><g fill="#fff"><path d="M46.8 12.8h-4.9v-5.2h15.9v5.2h-4.9v16.9h-6v-16.9zM59.2 7.6h6.1v22.1h-6.1v-22.1zM78 16.9h11.8v1.3c0 7.6-4.3 12-11.5 12-3.5 0-6.3-1-8.5-3.3-2.1-2.1-3.3-5.2-3.3-8.3 0-6.7 5-11.5 11.8-11.5 4.3 0 7.7 1.7 9.9 5.1l-5.2 2.5c-1.2-1.7-2.8-2.5-4.7-2.5-3.5 0-5.8 2.5-5.8 6.7s2.3 6.8 5.8 6.8c3.1 0 5.3-1.7 5.6-4.1h-6l.1-4.7zM91 7.6h13.5v4.8h-7.7v3.8h7.2v4.8h-7.2v3.7h7.7v4.9h-13.5v-22zM106.5 7.6h6.7c3.1 0 5.4 0 7.3 1.5 1.6 1.2 2.5 3.1 2.5 5.4 0 3.4-1.7 5.6-4.9 6.3l6 8.9h-6.8l-5.1-8.6v8.6h-5.6v-22.1zm6.7 10.4c2.5 0 3.7-.8 3.7-2.7 0-2.3-1.1-3.1-3.6-3.1h-1.2v5.8h1.1zM125 7.6h6v16.9h7.5v5.2h-13.5v-22.1zM140 7.6h6.1v22.1h-6.1v-22.1zM148.1 7.6h6v16.9h7.5v5.2h-13.5v-22.1zM163.8 19.6l-7.8-12h6.9l3 5.7c.2.3.5.9.7 1.9.2-1 .6-1.5.8-1.9l2.9-5.7h6.9l-7.7 12v10.1h-5.8v-10.1z"/></g><g fill="#fff"><path d="M32.1 16.9c1.3-5.6.1-11.4-3.2-16.1-.9.5-1.8 1.1-2.6 1.8l.3.5c.1.2.3.4.4.7l.5.8.4.7.4.7.3.7.3.9.3.7.3.9.2.7.2 1c0 .2.1.4.1.7.1.4.1.8.1 1.1l.1.6.1 1.7c0 .5 0 .9-.1 1.4v.4c0 .3-.1.6-.1 1 0 .2 0 .3-.1.5 0 .3-.1.6-.2.9l-.1.5c-.1.3-.2.7-.2 1l-.1.4-.4 1.3c0 .1 0 .1-.1.1-.1.4-.3.8-.4 1.1l-.2.4c-.1.3-.3.6-.4.8l-.2.4c-.1.3-.3.5-.4.7-.1.1-.1.2-.1.3 2.2-2.3 4.1-5.7 4.9-9.3zM23.2 28.9c.1-.1.2-.2.3-.2l.4-.4.2-.2.4-.5.2-.2c.2-.2.4-.5.6-.8.1-.1.1-.2.2-.2l.4-.6c.1-.1.1-.2.2-.4l.3-.5.2-.4c.1-.2.2-.4.3-.5l.2-.4c.1-.2.2-.4.2-.5l.2-.4.2-.6.2-.5.2-.6.1-.5.2-.6.1-.5.1-.6.1-.5c0-.2.1-.4.1-.7 0-.1 0-.3.1-.4 0-.2 0-.5.1-.7v-1.5c0-4.4-1.4-8.7-4.1-12.2-.8-1-1.6-2-2.6-2.9-3.8 3.5-6.1 8.1-6.5 13.2l.9.8c.5.5.9 1 1.3 1.5l.1.1c.4.5.8 1 1.1 1.5l.2.2c.3.5.7 1 1 1.6l.1.3c.3.5.6 1.1.8 1.7 0 .1.1.2.1.2l.7 1.8c0 .1 0 .1.1.2.2.6.4 1.3.5 1.9l.3 1.9v.1c.1.6.1 1.3.1 1.9v.1c-.1.1 0 .1.1 0zM21.4 29.7v-1.9000000000000001l-.2-1.8v-.2l-.4-1.8c0-.1 0-.1-.1-.2-.2-.6-.4-1.2-.6-1.7l-.1-.2c-.2-.6-.5-1.1-.8-1.7-.2-.1-.2-.2-.2-.2-.3-.6-.6-1.1-1-1.6l-.1-.1c-.4-.5-.7-1.1-1.2-1.6v-.1c-.4-.5-.9-1-1.4-1.5-.4-.4-.7-.7-1.1-1-3.9-3.4-9-5.1-14.3-4.9-.1 5.7 2.1 11.3 6.1 15.3 3.6 3.6 8.4 5.7 12.8 5.7.9 0 1.7-.1 2.5-.2l.1-.3z"/></g></svg>
