<?xml version="1.0" encoding="utf-8"?>
<!-- Generator: Adobe Illustrator 17.0.2, SVG Export Plug-In . SVG Version: 6.00 Build 0)  -->
<!DOCTYPE svg PUBLIC "-//W3C//DTD SVG 1.1//EN" "http://www.w3.org/Graphics/SVG/1.1/DTD/svg11.dtd">
<svg version="1.1" id="Forme_1_copie_3_1_" xmlns="http://www.w3.org/2000/svg" xmlns:xlink="http://www.w3.org/1999/xlink" x="0px"
	 y="0px" width="25px" height="25px" viewBox="0 0 25 25" enable-background="new 0 0 25 25" xml:space="preserve">
<g id="Forme_1_copie_3">
	<g>
		<path fill-rule="evenodd" clip-rule="evenodd" fill="#EA4C89" d="M24.745,9.984c-0.165-0.805-0.409-1.595-0.729-2.349
			c-0.312-0.742-0.7-1.457-1.153-2.124c-0.446-0.663-0.96-1.283-1.525-1.85c-0.566-0.564-1.188-1.076-1.849-1.524
			c-0.668-0.452-1.382-0.84-2.123-1.155c-0.755-0.319-1.545-0.564-2.348-0.728C14.193,0.086,13.346,0,12.5,0
			c-0.847,0-1.694,0.086-2.517,0.254C9.178,0.417,8.388,0.662,7.634,0.981C6.893,1.296,6.177,1.684,5.509,2.136
			C4.848,2.584,4.226,3.096,3.661,3.66C3.096,4.227,2.582,4.847,2.135,5.51C1.685,6.177,1.297,6.892,0.983,7.634
			c-0.32,0.754-0.565,1.545-0.73,2.349C0.086,10.806,0,11.653,0,12.5c0,0.846,0.086,1.692,0.253,2.516
			c0.165,0.804,0.41,1.594,0.73,2.349c0.314,0.742,0.702,1.456,1.152,2.123c0.447,0.662,0.961,1.284,1.526,1.85
			c0.565,0.564,1.187,1.077,1.848,1.526c0.668,0.45,1.383,0.838,2.124,1.152c0.754,0.319,1.545,0.563,2.349,0.727
			c0.823,0.17,1.67,0.256,2.517,0.256c0.847,0,1.694-0.087,2.518-0.256c0.803-0.165,1.593-0.409,2.348-0.727
			c0.741-0.314,1.456-0.702,2.124-1.152c0.661-0.449,1.284-0.962,1.849-1.526c0.565-0.566,1.079-1.188,1.525-1.85
			c0.453-0.667,0.84-1.381,1.153-2.123c0.32-0.755,0.564-1.545,0.729-2.349C24.914,14.192,25,13.347,25,12.5
			C25,11.653,24.914,10.806,24.745,9.984z M12.499,1.826c2.703,0,5.171,1.005,7.05,2.662c-0.026,0.039-1.547,2.354-5.575,3.863
			C12.149,5,10.144,2.34,9.984,2.125C10.79,1.931,11.632,1.826,12.499,1.826z M7.945,2.845c0.142,0.19,2.116,2.869,3.964,6.151
			c-5.125,1.362-9.574,1.305-9.855,1.303C2.746,6.993,4.968,4.251,7.945,2.845z M4.56,19.633c-1.701-1.89-2.735-4.39-2.735-7.133
			c0-0.115,0.005-0.226,0.009-0.341c0.189,0.007,5.464,0.126,10.96-1.52c0.306,0.599,0.598,1.207,0.866,1.814
			c-0.14,0.04-0.282,0.082-0.421,0.128c-5.761,1.863-8.682,7.045-8.682,7.045S4.558,19.63,4.56,19.633z M12.499,23.174
			c-2.476,0-4.749-0.85-6.559-2.264c0.02-0.042,2.076-4.468,8.376-6.664c0.023-0.009,0.047-0.015,0.071-0.023
			c1.502,3.904,2.122,7.173,2.28,8.105C15.386,22.873,13.978,23.174,12.499,23.174z M18.465,21.353
			c-0.109-0.643-0.678-3.777-2.078-7.625c3.446-0.552,6.432,0.393,6.652,0.464C22.564,17.167,20.862,19.735,18.465,21.353z
			 M15.736,12.044c-0.075-0.183-0.152-0.366-0.231-0.553c-0.222-0.521-0.461-1.039-0.709-1.548c4.215-1.721,5.927-4.195,5.947-4.224
			c1.498,1.818,2.403,4.141,2.427,6.671C23.016,12.358,19.403,11.582,15.736,12.044z"/>
	</g>
</g>
</svg>
