<?xml version="1.0" encoding="utf-8"?>
<!-- Generator: Adobe Illustrator 17.0.2, SVG Export Plug-In . SVG Version: 6.00 Build 0)  -->
<!DOCTYPE svg PUBLIC "-//W3C//DTD SVG 1.1//EN" "http://www.w3.org/Graphics/SVG/1.1/DTD/svg11.dtd">
<svg version="1.1" id="Mail_copie_1_" xmlns="http://www.w3.org/2000/svg" xmlns:xlink="http://www.w3.org/1999/xlink" x="0px"
	 y="0px" width="25px" height="21px" viewBox="0 0 25 21" enable-background="new 0 0 25 21" xml:space="preserve">
<g id="Mail_copie">
	<g>
		<path fill-rule="evenodd" clip-rule="evenodd" fill="#9AA6C1" d="M23.437,0H1.563C0.7,0,0,0.723,0,1.615v17.769
			C0,20.277,0.7,21,1.563,21h21.875C24.3,21,25,20.277,25,19.385V1.615C25,0.723,24.3,0,23.437,0z M22.656,18.577H2.344V6.22
			l9.152,7.939c0.291,0.252,0.648,0.379,1.004,0.379s0.713-0.127,1.004-0.379l9.152-7.939V18.577z M22.656,3.057L12.5,11.868
			L2.344,3.057V2.423h20.313V3.057z"/>
	</g>
</g>
</svg>
