<?xml version="1.0" encoding="utf-8"?>
<!-- Generator: Adobe Illustrator 17.0.2, SVG Export Plug-In . SVG Version: 6.00 Build 0)  -->
<!DOCTYPE svg PUBLIC "-//W3C//DTD SVG 1.1//EN" "http://www.w3.org/Graphics/SVG/1.1/DTD/svg11.dtd">
<svg version="1.1" id="Groupe_1_copie_7_1_" xmlns="http://www.w3.org/2000/svg" xmlns:xlink="http://www.w3.org/1999/xlink"
	 x="0px" y="0px" width="85px" height="97px" viewBox="0 0 85 97" enable-background="new 0 0 85 97" xml:space="preserve">
<g id="Rectangle_arrondi_6">
	<g>
		<path fill-rule="evenodd" clip-rule="evenodd" fill="#FBFCFE" d="M5,96.5c-2.481,0-4.5-2.019-4.5-4.5V5c0-2.481,2.019-4.5,4.5-4.5
			h75c2.481,0,4.5,2.019,4.5,4.5v87c0,2.481-2.019,4.5-4.5,4.5H5z"/>
	</g>
	<g>
		<path fill="#DBE4F7" d="M80,1c2.206,0,4,1.794,4,4v87c0,2.206-1.794,4-4,4H5c-2.206,0-4-1.794-4-4V5c0-2.206,1.794-4,4-4H80 M80,0
			H5C2.239,0,0,2.239,0,5v87c0,2.761,2.239,5,5,5h75c2.761,0,5-2.239,5-5V5C85,2.239,82.761,0,80,0L80,0z"/>
	</g>
</g>
<g id="Rectangle_arrondi_6_copie">
	<g>
		<path fill-rule="evenodd" clip-rule="evenodd" fill="#C2CADA" d="M5,96.5c-2.481,0-4.5-2.019-4.5-4.5V72.5h84V92
			c0,2.481-2.019,4.5-4.5,4.5H5z"/>
	</g>
	<g>
		<path fill="#DBE4F7" d="M84,73v19c0,2.206-1.794,4-4,4H5c-2.206,0-4-1.794-4-4V73H84 M85,72H0v20c0,2.761,2.239,5,5,5h75
			c2.761,0,5-2.239,5-5V72L85,72z"/>
	</g>
</g>
<g id="JUIN">
	<g>
		<path fill-rule="evenodd" clip-rule="evenodd" fill="#FFFFFF" d="M30.81,86.226c0,0.177-0.007,0.362-0.021,0.553
			c-0.014,0.191-0.056,0.369-0.126,0.532c-0.07,0.163-0.184,0.296-0.343,0.399c-0.159,0.103-0.383,0.154-0.672,0.154
			c-0.261,0-0.474-0.042-0.637-0.126c-0.163-0.084-0.292-0.198-0.385-0.343c-0.093-0.145-0.159-0.32-0.196-0.525
			c-0.037-0.205-0.056-0.429-0.056-0.672V85.75h-1.988v0.868c0,0.551,0.093,1.02,0.28,1.407c0.187,0.387,0.434,0.705,0.742,0.952
			c0.308,0.247,0.658,0.429,1.05,0.546c0.392,0.117,0.798,0.175,1.218,0.175c0.747,0,1.339-0.114,1.778-0.343
			c0.439-0.229,0.775-0.513,1.008-0.854c0.233-0.341,0.383-0.707,0.448-1.099c0.065-0.392,0.098-0.751,0.098-1.078v-6.846H30.81
			V86.226z M41.227,85.694c0,0.747-0.149,1.295-0.448,1.645c-0.299,0.35-0.84,0.525-1.624,0.525c-0.448,0-0.805-0.063-1.071-0.189
			c-0.266-0.126-0.474-0.289-0.623-0.49c-0.149-0.201-0.247-0.432-0.294-0.693c-0.047-0.261-0.07-0.527-0.07-0.798v-6.216h-2.198
			v6.216c0,1.363,0.371,2.371,1.113,3.024c0.742,0.653,1.79,0.98,3.143,0.98c1.335,0,2.38-0.329,3.136-0.987
			c0.756-0.658,1.134-1.664,1.134-3.017v-6.216h-2.198V85.694z M45.315,89.474h2.198v-9.996h-2.198V89.474z M55.83,79.478v6.706
			h-0.028l-4.172-6.706h-2.184v9.996h2.058v-6.692h0.028l4.158,6.692h2.198v-9.996H55.83z"/>
	</g>
</g>
<g id="Forme_19">
	<g>
		<rect y="26" fill-rule="evenodd" clip-rule="evenodd" fill="#DBE4F7" width="85" height="1"/>
	</g>
</g>
<g id="Rectangle_8">
	<g>
		<rect x="1" y="27" fill-rule="evenodd" clip-rule="evenodd" fill="#FFFFFF" width="83" height="45"/>
	</g>
</g>
<g id="Jeudi">
	<g>
		<path fill-rule="evenodd" clip-rule="evenodd" fill="#606165" d="M29.413,16.258c0,0.308-0.019,0.583-0.056,0.826
			c-0.037,0.243-0.109,0.446-0.216,0.609c-0.107,0.163-0.251,0.287-0.432,0.371s-0.411,0.126-0.69,0.126
			c-0.53,0-0.89-0.156-1.08-0.469c-0.191-0.313-0.286-0.754-0.286-1.323V15.88H24.91v0.532c0,0.457,0.056,0.882,0.167,1.274
			s0.288,0.73,0.53,1.015c0.242,0.285,0.548,0.509,0.92,0.672c0.372,0.163,0.822,0.245,1.352,0.245c0.716,0,1.289-0.098,1.722-0.294
			s0.762-0.457,0.99-0.784c0.228-0.327,0.379-0.695,0.453-1.106c0.074-0.411,0.112-0.835,0.112-1.274V9.384h-1.742V16.258z
			 M38.836,13.248c-0.298-0.392-0.672-0.707-1.122-0.945c-0.451-0.238-0.96-0.357-1.526-0.357c-0.539,0-1.022,0.103-1.45,0.308
			c-0.428,0.205-0.792,0.483-1.094,0.833c-0.302,0.35-0.535,0.756-0.697,1.218c-0.163,0.462-0.244,0.95-0.244,1.463
			c0,0.56,0.077,1.073,0.23,1.54c0.153,0.467,0.381,0.868,0.683,1.204c0.302,0.336,0.671,0.597,1.108,0.784
			c0.437,0.187,0.939,0.28,1.506,0.28c0.39,0,0.764-0.054,1.122-0.161c0.358-0.107,0.681-0.266,0.969-0.476
			c0.288-0.21,0.534-0.469,0.739-0.777c0.204-0.308,0.349-0.658,0.432-1.05h-1.505c-0.139,0.401-0.351,0.702-0.634,0.903
			c-0.284,0.201-0.658,0.301-1.122,0.301c-0.335,0-0.623-0.058-0.864-0.175c-0.242-0.117-0.441-0.273-0.599-0.469
			c-0.158-0.196-0.277-0.425-0.355-0.686c-0.079-0.261-0.118-0.532-0.118-0.812h5.297c0.065-0.541,0.03-1.066-0.105-1.575
			C39.35,14.09,39.134,13.64,38.836,13.248z M34.292,15.124c0.009-0.271,0.063-0.523,0.16-0.756c0.098-0.233,0.228-0.436,0.39-0.609
			c0.162-0.173,0.358-0.308,0.585-0.406c0.228-0.098,0.481-0.147,0.76-0.147c0.269,0,0.513,0.054,0.732,0.161
			c0.218,0.107,0.404,0.247,0.558,0.42c0.153,0.173,0.274,0.376,0.362,0.609c0.088,0.233,0.142,0.476,0.16,0.728H34.292z
			 M45.541,16.342c0,0.28-0.03,0.541-0.091,0.784c-0.061,0.243-0.16,0.45-0.3,0.623c-0.139,0.173-0.321,0.31-0.544,0.413
			c-0.223,0.103-0.502,0.154-0.836,0.154c-0.437,0-0.776-0.131-1.018-0.392c-0.242-0.261-0.362-0.709-0.362-1.344v-4.438h-1.589
			v4.592c0,0.952,0.211,1.664,0.634,2.135c0.423,0.471,1.108,0.707,2.056,0.707c0.399,0,0.792-0.11,1.178-0.329
			c0.385-0.219,0.676-0.511,0.871-0.875h0.028v1.008h1.561v-7.238h-1.589V16.342z M54.003,13.08h-0.028
			c-0.121-0.196-0.272-0.366-0.453-0.511c-0.181-0.145-0.379-0.264-0.592-0.357c-0.214-0.093-0.437-0.161-0.669-0.203
			c-0.232-0.042-0.46-0.063-0.683-0.063c-0.39,0-0.774,0.072-1.15,0.217c-0.376,0.145-0.711,0.371-1.004,0.679
			s-0.528,0.7-0.704,1.176c-0.177,0.476-0.265,1.041-0.265,1.694c0,0.541,0.07,1.048,0.209,1.519
			c0.139,0.471,0.349,0.88,0.627,1.225c0.279,0.345,0.63,0.618,1.052,0.819c0.423,0.201,0.918,0.301,1.485,0.301
			c0.455,0,0.887-0.091,1.296-0.273c0.409-0.182,0.72-0.483,0.934-0.903h0.028v0.98h1.506V9.384h-1.589V13.08z M53.94,16.685
			c-0.079,0.303-0.2,0.576-0.362,0.819c-0.163,0.243-0.372,0.439-0.627,0.588c-0.256,0.149-0.56,0.224-0.913,0.224
			c-0.344,0-0.641-0.07-0.892-0.21c-0.251-0.14-0.458-0.327-0.62-0.56c-0.163-0.233-0.284-0.499-0.362-0.798
			c-0.079-0.299-0.119-0.602-0.119-0.91c0-0.327,0.035-0.646,0.105-0.959c0.07-0.313,0.186-0.593,0.349-0.84
			c0.163-0.247,0.372-0.448,0.627-0.602c0.255-0.154,0.569-0.231,0.941-0.231c0.613,0,1.099,0.224,1.457,0.672
			c0.358,0.448,0.537,1.073,0.537,1.876C54.059,16.071,54.019,16.382,53.94,16.685z M57.362,19.38h1.589v-7.238h-1.589V19.38z
			 M57.362,9.384v1.512h1.589V9.384H57.362z"/>
	</g>
</g>
<g id="_x32_5" opacity="0.902">
	<g>
		<path fill-rule="evenodd" clip-rule="evenodd" fill="#45474C" d="M35.256,51.847c1.768-1.848,2.981-3.366,3.638-4.554
			c0.657-1.188,0.986-2.43,0.986-3.726c0-2.376-0.819-4.254-2.455-5.634c-1.637-1.38-3.537-2.07-5.699-2.07
			c-2.163,0-3.943,0.468-5.341,1.404c-1.398,0.936-2.683,2.316-3.853,4.14l4.481,2.664c1.41-2.256,2.904-3.384,4.481-3.384
			c0.86,0,1.565,0.282,2.115,0.846c0.549,0.564,0.824,1.266,0.824,2.106c0,0.84-0.317,1.71-0.95,2.61
			c-0.633,0.9-1.691,2.106-3.172,3.618l-7.348,7.56v4.176h17.672v-5.04H30.74L35.256,51.847z M59.595,47.383
			c-1.745-1.464-3.824-2.196-6.237-2.196c-0.956,0-1.805,0.108-2.545,0.324v-4.212h9.893v-4.86H45.58v12.276l2.33,2.52
			c1.672-0.912,3.142-1.368,4.409-1.368c1.266,0,2.3,0.306,3.101,0.918c0.8,0.612,1.201,1.482,1.201,2.61
			c0,1.128-0.371,1.98-1.111,2.556c-0.741,0.576-1.59,0.864-2.545,0.864c-0.956,0-1.912-0.258-2.868-0.774
			c-0.956-0.516-1.613-0.93-1.972-1.242c-0.358-0.312-0.645-0.576-0.86-0.792l-2.939,4.104c2.27,2.52,5.102,3.78,8.495,3.78
			c2.653,0,4.881-0.81,6.685-2.43c1.804-1.62,2.706-3.672,2.706-6.156S61.339,48.847,59.595,47.383z"/>
	</g>
</g>
</svg>
