<?xml version="1.0" encoding="utf-8"?>
<!-- Generator: Adobe Illustrator 17.0.2, SVG Export Plug-In . SVG Version: 6.00 Build 0)  -->
<!DOCTYPE svg PUBLIC "-//W3C//DTD SVG 1.1//EN" "http://www.w3.org/Graphics/SVG/1.1/DTD/svg11.dtd">
<svg version="1.1" id="Groupe_1_copie_6_1_" xmlns="http://www.w3.org/2000/svg" xmlns:xlink="http://www.w3.org/1999/xlink"
	 x="0px" y="0px" width="86px" height="97px" viewBox="0 0 86 97" enable-background="new 0 0 86 97" xml:space="preserve">
<g id="Rectangle_arrondi_6">
	<g>
		<path fill-rule="evenodd" clip-rule="evenodd" fill="#FFFFFF" d="M5,96.5c-2.481,0-4.5-2.019-4.5-4.5V5c0-2.481,2.019-4.5,4.5-4.5
			h75c2.481,0,4.5,2.019,4.5,4.5v87c0,2.481-2.019,4.5-4.5,4.5H5z"/>
	</g>
	<g>
		<path fill="#DBE4F7" d="M80,1c2.206,0,4,1.794,4,4v87c0,2.206-1.794,4-4,4H5c-2.206,0-4-1.794-4-4V5c0-2.206,1.794-4,4-4H80 M80,0
			H5C2.239,0,0,2.239,0,5v87c0,2.761,2.239,5,5,5h75c2.761,0,5-2.239,5-5V5C85,2.239,82.761,0,80,0L80,0z"/>
	</g>
</g>
<g id="Rectangle_arrondi_6_copie">
	<g>
		<path fill-rule="evenodd" clip-rule="evenodd" fill="#EA4C89" d="M5,96.5c-2.481,0-4.5-2.019-4.5-4.5V72.5h84V92
			c0,2.481-2.019,4.5-4.5,4.5H5z"/>
	</g>
	<g>
		<path fill="#DBE4F7" d="M84,73v19c0,2.206-1.794,4-4,4H5c-2.206,0-4-1.794-4-4V73H84 M85,72H0v20c0,2.761,2.239,5,5,5h75
			c2.761,0,5-2.239,5-5V72L85,72z"/>
	</g>
</g>
<g id="JUIN">
	<g>
		<path fill-rule="evenodd" clip-rule="evenodd" fill="#FFFFFF" d="M30.81,86.226c0,0.177-0.007,0.362-0.021,0.553
			c-0.014,0.191-0.056,0.369-0.126,0.532c-0.07,0.163-0.184,0.296-0.343,0.399c-0.159,0.103-0.383,0.154-0.672,0.154
			c-0.261,0-0.474-0.042-0.637-0.126c-0.163-0.084-0.292-0.198-0.385-0.343c-0.093-0.145-0.159-0.32-0.196-0.525
			c-0.037-0.205-0.056-0.429-0.056-0.672V85.75h-1.988v0.868c0,0.551,0.093,1.02,0.28,1.407c0.187,0.387,0.434,0.705,0.742,0.952
			c0.308,0.247,0.658,0.429,1.05,0.546c0.392,0.117,0.798,0.175,1.218,0.175c0.747,0,1.339-0.114,1.778-0.343
			c0.439-0.229,0.775-0.513,1.008-0.854c0.233-0.341,0.383-0.707,0.448-1.099c0.065-0.392,0.098-0.751,0.098-1.078v-6.846H30.81
			V86.226z M41.227,85.694c0,0.747-0.149,1.295-0.448,1.645c-0.299,0.35-0.84,0.525-1.624,0.525c-0.448,0-0.805-0.063-1.071-0.189
			c-0.266-0.126-0.474-0.289-0.623-0.49c-0.149-0.201-0.247-0.432-0.294-0.693c-0.047-0.261-0.07-0.527-0.07-0.798v-6.216h-2.198
			v6.216c0,1.363,0.371,2.371,1.113,3.024c0.742,0.653,1.79,0.98,3.143,0.98c1.335,0,2.38-0.329,3.136-0.987
			c0.756-0.658,1.134-1.664,1.134-3.017v-6.216h-2.198V85.694z M45.315,89.474h2.198v-9.996h-2.198V89.474z M55.83,79.478v6.706
			h-0.028l-4.172-6.706h-2.184v9.996h2.058v-6.692h0.028l4.158,6.692h2.198v-9.996H55.83z"/>
	</g>
</g>
<g id="Forme_19">
	<g>
		<rect y="26" fill-rule="evenodd" clip-rule="evenodd" fill="#DBE4F7" width="85" height="1"/>
	</g>
</g>
<g id="Rectangle_8">
	<g>
		<rect x="1" y="27" fill-rule="evenodd" clip-rule="evenodd" fill="#FFFFFF" width="83" height="45"/>
	</g>
</g>
<g id="Vendredi">
	<g>
		<path fill-rule="evenodd" clip-rule="evenodd" fill="#606165" d="M20.951,9.384l-2.551,7.91h-0.028l-2.495-7.91h-1.812
			l3.318,9.996h1.938l3.401-9.996H20.951z M28.507,13.248c-0.298-0.392-0.672-0.707-1.122-0.945
			c-0.451-0.238-0.96-0.357-1.526-0.357c-0.539,0-1.022,0.103-1.45,0.308c-0.428,0.205-0.792,0.483-1.094,0.833
			c-0.302,0.35-0.534,0.756-0.697,1.218c-0.163,0.462-0.244,0.95-0.244,1.463c0,0.56,0.077,1.073,0.23,1.54
			c0.153,0.467,0.381,0.868,0.683,1.204c0.302,0.336,0.671,0.597,1.108,0.784c0.437,0.187,0.939,0.28,1.506,0.28
			c0.39,0,0.764-0.054,1.122-0.161c0.358-0.107,0.681-0.266,0.969-0.476c0.288-0.21,0.534-0.469,0.739-0.777
			c0.204-0.308,0.349-0.658,0.432-1.05h-1.505c-0.139,0.401-0.351,0.702-0.634,0.903c-0.284,0.201-0.658,0.301-1.122,0.301
			c-0.335,0-0.623-0.058-0.864-0.175c-0.242-0.117-0.441-0.273-0.599-0.469c-0.158-0.196-0.277-0.425-0.355-0.686
			c-0.079-0.261-0.118-0.532-0.118-0.812h5.297c0.065-0.541,0.03-1.066-0.105-1.575C29.02,14.09,28.804,13.64,28.507,13.248z
			 M23.962,15.124c0.009-0.271,0.063-0.523,0.16-0.756c0.098-0.233,0.228-0.436,0.39-0.609c0.162-0.173,0.358-0.308,0.585-0.406
			c0.228-0.098,0.481-0.147,0.76-0.147c0.269,0,0.513,0.054,0.732,0.161c0.218,0.107,0.404,0.247,0.558,0.42
			c0.153,0.173,0.274,0.376,0.362,0.609c0.088,0.233,0.142,0.476,0.16,0.728H23.962z M34.25,11.946
			c-0.474,0-0.906,0.114-1.296,0.343c-0.39,0.229-0.706,0.544-0.948,0.945l-0.028-0.028v-1.064h-1.506v7.238h1.589v-4.27
			c0-0.261,0.042-0.509,0.125-0.742c0.084-0.233,0.2-0.436,0.349-0.609c0.148-0.173,0.33-0.308,0.544-0.406
			c0.214-0.098,0.455-0.147,0.725-0.147c0.474,0,0.822,0.128,1.045,0.385c0.223,0.257,0.344,0.67,0.362,1.239v4.55h1.589v-4.97
			c0-0.821-0.228-1.437-0.683-1.848C35.663,12.151,35.04,11.946,34.25,11.946z M43.674,13.08h-0.028
			c-0.121-0.196-0.272-0.366-0.453-0.511c-0.181-0.145-0.379-0.264-0.592-0.357c-0.214-0.093-0.437-0.161-0.669-0.203
			c-0.232-0.042-0.46-0.063-0.683-0.063c-0.39,0-0.774,0.072-1.15,0.217c-0.376,0.145-0.711,0.371-1.004,0.679
			c-0.293,0.308-0.528,0.7-0.704,1.176c-0.177,0.476-0.265,1.041-0.265,1.694c0,0.541,0.07,1.048,0.209,1.519
			c0.139,0.471,0.349,0.88,0.627,1.225c0.279,0.345,0.63,0.618,1.052,0.819c0.423,0.201,0.918,0.301,1.485,0.301
			c0.455,0,0.887-0.091,1.296-0.273c0.409-0.182,0.72-0.483,0.934-0.903h0.028v0.98h1.506V9.384h-1.589V13.08z M43.611,16.685
			c-0.079,0.303-0.2,0.576-0.362,0.819c-0.163,0.243-0.372,0.439-0.627,0.588c-0.256,0.149-0.56,0.224-0.913,0.224
			c-0.344,0-0.641-0.07-0.892-0.21c-0.251-0.14-0.458-0.327-0.62-0.56c-0.163-0.233-0.284-0.499-0.362-0.798
			c-0.079-0.299-0.119-0.602-0.119-0.91c0-0.327,0.035-0.646,0.105-0.959c0.07-0.313,0.186-0.593,0.349-0.84
			c0.162-0.247,0.372-0.448,0.627-0.602c0.255-0.154,0.569-0.231,0.941-0.231c0.613,0,1.099,0.224,1.457,0.672
			c0.358,0.448,0.537,1.073,0.537,1.876C43.729,16.071,43.69,16.382,43.611,16.685z M50.616,11.946c-0.242,0-0.479,0.047-0.711,0.14
			c-0.232,0.093-0.444,0.217-0.634,0.371c-0.191,0.154-0.353,0.324-0.488,0.511c-0.135,0.187-0.225,0.378-0.272,0.574h-0.028v-1.4
			h-1.492v7.238h1.589v-3.444c0-0.401,0.051-0.756,0.153-1.064c0.102-0.308,0.242-0.567,0.418-0.777
			c0.176-0.21,0.383-0.369,0.62-0.476c0.237-0.107,0.49-0.161,0.76-0.161c0.112,0,0.225,0.007,0.342,0.021
			c0.116,0.014,0.23,0.03,0.341,0.049v-1.54c-0.074-0.009-0.146-0.019-0.216-0.028C50.929,11.951,50.801,11.946,50.616,11.946z
			 M57.432,13.248c-0.298-0.392-0.672-0.707-1.122-0.945c-0.451-0.238-0.96-0.357-1.526-0.357c-0.539,0-1.022,0.103-1.45,0.308
			c-0.428,0.205-0.792,0.483-1.094,0.833c-0.302,0.35-0.534,0.756-0.697,1.218c-0.163,0.462-0.244,0.95-0.244,1.463
			c0,0.56,0.077,1.073,0.23,1.54c0.153,0.467,0.381,0.868,0.683,1.204c0.302,0.336,0.671,0.597,1.108,0.784
			c0.437,0.187,0.939,0.28,1.505,0.28c0.39,0,0.764-0.054,1.122-0.161c0.358-0.107,0.681-0.266,0.969-0.476
			c0.288-0.21,0.534-0.469,0.739-0.777c0.204-0.308,0.349-0.658,0.432-1.05h-1.506c-0.139,0.401-0.351,0.702-0.634,0.903
			c-0.284,0.201-0.658,0.301-1.122,0.301c-0.335,0-0.623-0.058-0.864-0.175c-0.242-0.117-0.442-0.273-0.599-0.469
			c-0.158-0.196-0.277-0.425-0.355-0.686c-0.079-0.261-0.118-0.532-0.118-0.812h5.297c0.065-0.541,0.03-1.066-0.105-1.575
			C57.946,14.09,57.73,13.64,57.432,13.248z M52.888,15.124c0.009-0.271,0.063-0.523,0.16-0.756c0.098-0.233,0.228-0.436,0.39-0.609
			c0.162-0.173,0.358-0.308,0.586-0.406c0.228-0.098,0.481-0.147,0.76-0.147c0.269,0,0.513,0.054,0.732,0.161
			c0.218,0.107,0.404,0.247,0.558,0.42c0.153,0.173,0.274,0.376,0.362,0.609c0.088,0.233,0.142,0.476,0.16,0.728H52.888z
			 M64.597,13.08H64.57c-0.121-0.196-0.272-0.366-0.453-0.511c-0.181-0.145-0.379-0.264-0.592-0.357
			c-0.214-0.093-0.437-0.161-0.669-0.203c-0.232-0.042-0.46-0.063-0.683-0.063c-0.39,0-0.774,0.072-1.15,0.217
			c-0.376,0.145-0.711,0.371-1.004,0.679c-0.293,0.308-0.528,0.7-0.704,1.176c-0.177,0.476-0.265,1.041-0.265,1.694
			c0,0.541,0.07,1.048,0.209,1.519c0.139,0.471,0.349,0.88,0.627,1.225c0.279,0.345,0.629,0.618,1.052,0.819
			c0.423,0.201,0.918,0.301,1.485,0.301c0.455,0,0.887-0.091,1.296-0.273c0.409-0.182,0.72-0.483,0.934-0.903h0.028v0.98h1.505
			V9.384h-1.589V13.08z M64.535,16.685c-0.079,0.303-0.2,0.576-0.362,0.819c-0.163,0.243-0.372,0.439-0.627,0.588
			c-0.256,0.149-0.56,0.224-0.913,0.224c-0.344,0-0.641-0.07-0.892-0.21c-0.251-0.14-0.458-0.327-0.62-0.56
			c-0.163-0.233-0.284-0.499-0.362-0.798c-0.079-0.299-0.118-0.602-0.118-0.91c0-0.327,0.035-0.646,0.105-0.959
			c0.07-0.313,0.186-0.593,0.349-0.84c0.162-0.247,0.372-0.448,0.627-0.602c0.255-0.154,0.569-0.231,0.941-0.231
			c0.613,0,1.099,0.224,1.457,0.672c0.358,0.448,0.537,1.073,0.537,1.876C64.653,16.071,64.614,16.382,64.535,16.685z M67.957,19.38
			h1.589v-7.238h-1.589V19.38z M67.957,9.384v1.512h1.589V9.384H67.957z"/>
	</g>
</g>
<g id="_x32_6">
	<g>
		<path fill-rule="evenodd" clip-rule="evenodd" fill="#45474C" d="M34.647,51.847c1.768-1.848,2.981-3.366,3.638-4.554
			c0.657-1.188,0.986-2.43,0.986-3.726c0-2.376-0.819-4.254-2.455-5.634c-1.637-1.38-3.537-2.07-5.7-2.07
			c-2.163,0-3.943,0.468-5.341,1.404c-1.398,0.936-2.683,2.316-3.853,4.14l4.481,2.664c1.41-2.256,2.904-3.384,4.481-3.384
			c0.86,0,1.565,0.282,2.115,0.846c0.549,0.564,0.824,1.266,0.824,2.106c0,0.84-0.317,1.71-0.95,2.61
			c-0.633,0.9-1.691,2.106-3.172,3.618l-7.348,7.56v4.176h17.672v-5.04H30.13L34.647,51.847z M60.294,47.311
			c-1.565-1.536-3.519-2.304-5.861-2.304c-1.745,0-3.394,0.504-4.947,1.512c0.191-1.8,0.711-3.222,1.559-4.266
			c0.848-1.044,2.049-1.566,3.603-1.566c0.765,0,1.553,0.192,2.366,0.576c0.812,0.384,1.356,0.696,1.631,0.936
			c0.274,0.24,0.484,0.432,0.627,0.576l2.653-3.96c-0.693-0.552-1.326-1.008-1.9-1.368c-0.574-0.36-1.392-0.714-2.455-1.062
			c-1.064-0.348-2.181-0.522-3.352-0.522c-2.82,0-5.186,1.008-7.097,3.024c-0.98,1.008-1.751,2.382-2.312,4.122
			c-0.562,1.74-0.842,3.762-0.842,6.066c0,3.576,0.717,6.552,2.151,8.928c0.717,1.224,1.726,2.178,3.029,2.862
			c1.302,0.684,2.837,1.026,4.606,1.026c2.557,0,4.678-0.768,6.363-2.304c1.685-1.536,2.527-3.582,2.527-6.138
			C62.642,50.893,61.859,48.847,60.294,47.311z M56.441,56.167c-0.717,0.672-1.613,1.008-2.688,1.008s-1.971-0.378-2.688-1.134
			c-0.717-0.756-1.075-1.662-1.075-2.718c0-1.056,0.376-1.914,1.129-2.574c0.753-0.66,1.685-0.99,2.796-0.99
			c1.111,0,1.989,0.366,2.635,1.098c0.645,0.732,0.968,1.632,0.968,2.7C57.516,54.625,57.158,55.495,56.441,56.167z"/>
	</g>
</g>
</svg>
